<?xml version="1.0" encoding="utf-8"?>
<!-- Generator: Adobe Illustrator 16.0.0, SVG Export Plug-In . SVG Version: 6.00 Build 0)  -->
<!DOCTYPE svg PUBLIC "-//W3C//DTD SVG 1.1//EN" "http://www.w3.org/Graphics/SVG/1.1/DTD/svg11.dtd">
<svg version="1.1" xmlns="http://www.w3.org/2000/svg" xmlns:xlink="http://www.w3.org/1999/xlink" x="0px" y="0px" width="1000px"
	 height="1000px" viewBox="0 0 1000 1000" enable-background="new 0 0 1000 1000" xml:space="preserve">
<g id="Layer_1">
	<g>
		<g>
			<defs>
				<rect id="SVGID_1_" x="106.599" y="56.677" width="786.801" height="466.894"/>
			</defs>
			<clipPath id="SVGID_2_">
				<use xlink:href="#SVGID_1_"  overflow="visible"/>
			</clipPath>
			<g clip-path="url(#SVGID_2_)">
				<defs>
					<rect id="SVGID_3_" x="-63.031" y="-2.199" width="1054.009" height="617.584"/>
				</defs>
				<clipPath id="SVGID_4_">
					<use xlink:href="#SVGID_3_"  overflow="visible"/>
				</clipPath>
				<path clip-path="url(#SVGID_4_)" fill-rule="evenodd" clip-rule="evenodd" fill="#FFFFFF" d="M863.777,71.517
					c0.826,1.032,1.391,2.128,0.744,3.47c-0.674,1.396-1.941,1.625-3.309,1.636c-0.438,0.003-0.875,0.001-1.312,0.001H139.243
					c-0.438,0-0.874,0.002-1.312-0.001c-1.367-0.011-2.637-0.239-3.31-1.636c-0.647-1.341-0.083-2.438,0.745-3.47H863.777z"/>
				<path clip-path="url(#SVGID_4_)" fill-rule="evenodd" clip-rule="evenodd" fill="#FFFFFF" d="M401.382,501.57
					c-1.284-0.207-2.636-0.225-3.836-0.66c-2.169-0.787-4.254-1.812-6.363-2.763c-0.724-0.326-0.858-0.812-0.606-1.642
					c0.436-1.428,0.625-2.93,0.954-4.393c0.087-0.388,0.304-0.746,0.462-1.118c0.293,0.27,0.685,0.485,0.864,0.816
					c1.97,3.634,4.923,5.935,9.003,6.73c7.74,1.51,14.141-4.575,12.928-12.345c-0.378-2.422-1.698-4.405-3.79-5.628
					c-2.416-1.413-4.993-2.551-7.51-3.789c-1.868-0.918-3.852-1.644-5.605-2.74c-4.549-2.842-6.736-6.991-6.272-12.404
					c0.47-5.481,3.183-9.417,8.336-11.435c5.488-2.146,10.983-2.112,16.355,0.5c0.73,0.355,1.396,0.849,2.08,1.271
					c-0.704,2.188-1.371,4.265-2.038,6.341c-0.131,0.026-0.261,0.054-0.392,0.081c-0.34-0.638-0.695-1.268-1.017-1.915
					c-3.089-6.225-11.886-6.992-15.979-1.392c-2.898,3.967-2.295,9.607,1.67,12.499c2.24,1.633,4.882,2.733,7.391,3.977
					c1.603,0.795,3.344,1.314,4.937,2.125c6.707,3.416,9.013,8.884,6.916,16.127c-1.892,6.531-7.238,10.702-14.608,11.444
					c-0.714,0.071-1.421,0.206-2.131,0.312H401.382z"/>
				<path clip-path="url(#SVGID_4_)" fill-rule="evenodd" clip-rule="evenodd" fill="#FFFFFF" d="M349.581,123.173
					c-2.329,7.579-4.62,15.034-6.91,22.489c-0.939,3.058-1.854,6.124-2.84,9.167c-0.148,0.456-0.664,1.162-0.956,1.136
					c-1.065-0.094-2.364,0.715-3.171-0.65c-1.16-1.963-2.339-3.915-3.498-5.878c-3.278-5.551-7.751-9.911-13.205-13.302
					c-9.549-5.936-19.93-9.474-31.08-10.768c-11.828-1.371-23.646-1.346-35.406,0.628c-16.713,2.806-31.367,9.683-42.906,22.381
					c-8.842,9.729-14.622,21.18-18.311,33.729c-4.9,16.675-5.963,33.753-5.409,51.019c0.411,12.8,2.503,25.261,6.849,37.333
					c5.354,14.872,13.816,27.674,25.753,38.024c14.068,12.201,30.608,17.557,49.174,17.516c22.988-0.051,43.459-6.952,60.966-21.883
					c5.479-4.674,10.213-10.224,15.286-15.375c0.304-0.309,0.58-0.646,0.967-1.08c1.065,0.662,2.159,1.271,3.157,2.009
					c0.288,0.213,0.464,0.812,0.423,1.205c-1.109,10.323-2.264,20.643-3.375,30.966c-0.11,1.022-0.523,1.615-1.443,2.109
					c-16.636,8.947-34.278,14.905-52.908,17.984c-12.98,2.145-26.054,2.978-39.174,2.244c-21.581-1.205-42.032-6.484-60.628-17.873
					c-24.049-14.729-39.294-36.07-46.784-63.058c-4.009-14.441-4.969-29.235-4.136-44.16c0.863-15.438,4.054-30.396,10.114-44.616
					c10.972-25.747,29.686-43.913,55.083-55.422c13.697-6.206,28.042-9.832,42.953-11.451c13.608-1.477,27.229-1.612,40.856-0.48
					c20.733,1.723,40.562,6.988,59.532,15.514C348.858,122.767,349.146,122.941,349.581,123.173"/>
				<path clip-path="url(#SVGID_4_)" fill-rule="evenodd" clip-rule="evenodd" fill="#FFFFFF" d="M653.43,109.044
					c2.758,0.261,5.299,0.453,7.83,0.746c12.828,1.489,25.672,1.51,38.525,0.446c2.412-0.2,4.82-0.57,7.199-1.021
					c1.141-0.217,1.609,0.109,2.074,1.119c12.166,26.332,25.119,52.273,39.049,77.717c6.08,11.104,12.371,22.09,18.568,33.129
					c0.234,0.42,0.492,0.828,0.865,1.451c0.396-0.646,0.717-1.157,1.027-1.673c19.838-32.846,37.125-67.005,52.672-102.065
					c1.258-2.836,2.633-5.621,3.832-8.482c0.488-1.165,1.102-1.433,2.301-1.214c7.084,1.288,14.219,2.153,21.428,1.656
					c3.408-0.235,6.787-0.861,10.182-1.311c-0.141,0.24-0.389,0.677-0.65,1.103c-13.045,21.195-26.301,42.264-39.066,63.626
					c-8.902,14.899-17.115,30.212-25.674,45.319c-4.469,7.892-9.004,15.746-13.539,23.601c-1.5,2.6-2.008,5.351-2.031,8.351
					c-0.197,24.432,0.627,48.838,1.602,73.241c0.182,4.56,0.471,9.114,0.707,13.671c0.018,0.327,0.002,0.655,0.002,1.349
					c-15.301-2.623-30.508-2.842-45.881,0c0-0.793-0.01-1.309,0.002-1.824c0.621-24.608,1.254-49.216,1.854-73.824
					c0.117-4.853,0.129-9.71,0.107-14.564c-0.004-0.766-0.332-1.602-0.721-2.284c-22.434-39.371-45.691-78.255-69.512-116.803
					c-4.055-6.562-7.934-13.23-11.889-19.853C654.027,110.202,653.799,109.731,653.43,109.044"/>
				<path clip-path="url(#SVGID_4_)" fill-rule="evenodd" clip-rule="evenodd" fill="#FFFFFF" d="M571.742,339.564
					c-7.928-0.613-15.744-1.667-23.566-1.697c-7.826-0.03-15.656,0.963-23.445,1.506c0-1.538-0.068-3.221,0.01-4.896
					c0.979-20.705,2.355-41.401,2.859-62.118c0.469-19.266,0.025-38.555-0.047-57.832c-0.076-20.444-0.152-40.888-0.305-61.331
					c-0.051-6.846-0.336-13.688-0.518-20.532c-0.01-0.33-0.053-0.658-0.094-1.163c-23.051,0.024-46.026,0.313-69.101,2.303
					c2.16-8.27,2.153-16.423,0.021-24.615c59.883,2.657,119.62,2.497,179.514,0.015c-1.896,8.192-2.359,16.348,0.197,24.709
					c-22.514-2.592-44.746-2.078-67.125-2.421c-0.033,0.687-0.078,1.249-0.082,1.812c-0.203,31.416-0.467,62.831-0.582,94.247
					c-0.094,25.349-0.189,50.699,0.09,76.045c0.119,10.663,1.203,21.316,1.857,31.974
					C571.504,336.861,571.629,338.152,571.742,339.564"/>
				<path clip-path="url(#SVGID_4_)" fill-rule="evenodd" clip-rule="evenodd" fill="#FFFFFF" d="M435.9,339.568
					c-8.014-0.628-15.886-1.73-23.757-1.727c-7.877,0.003-15.752,1.111-23.719,1.742c-0.032-0.289-0.111-0.563-0.088-0.83
					c3.048-34.425,3.311-68.945,3.437-103.466c0.09-24.763,0.049-49.526,0.002-74.288c-0.033-17.152-1.13-34.247-3.071-51.287
					c-0.016-0.137,0.01-0.277,0.03-0.691c15.806,2.496,31.597,2.775,47.609-0.155c-0.237,2.177-0.505,4.023-0.631,5.88
					c-0.78,11.523-1.833,23.037-2.235,34.573c-1.342,38.589-0.881,77.194-0.562,115.794c0.128,15.631,0.6,31.262,1.177,46.884
					c0.33,8.919,1.188,17.819,1.807,26.729C435.914,338.959,435.9,339.195,435.9,339.568"/>
				<path clip-path="url(#SVGID_4_)" fill-rule="evenodd" clip-rule="evenodd" fill="#FFFFFF" d="M770.105,480.547
					c-30.004,0-60.008,0.001-90.01-0.008c-0.723,0-1.465-0.027-2.16-0.197c-1.342-0.328-2.176-1.479-2.035-2.792
					c0.141-1.332,0.84-2.263,2.234-2.492c0.617-0.102,1.252-0.146,1.881-0.146c60.057-0.006,120.113-0.006,180.168-0.002
					c0.484,0,0.973,0.013,1.451,0.079c1.598,0.221,2.656,1.348,2.637,2.771c-0.02,1.36-1.053,2.494-2.555,2.726
					c-0.572,0.088-1.162,0.061-1.744,0.061C830.018,480.547,800.062,480.547,770.105,480.547"/>
				<path clip-path="url(#SVGID_4_)" fill-rule="evenodd" clip-rule="evenodd" fill="#FFFFFF" d="M229.59,474.996
					c29.712,0,59.423,0,89.135-0.002c0.823,0,1.65-0.082,2.471-0.031c1.517,0.095,2.571,1.154,2.653,2.574
					c0.082,1.452-0.8,2.607-2.326,2.853c-0.852,0.136-1.737,0.078-2.606,0.078c-59.763,0.004-119.525,0.003-179.287,0.002
					c-0.583,0-1.174,0.043-1.745-0.038c-1.43-0.204-2.47-1.471-2.4-2.843c0.073-1.452,1.12-2.484,2.644-2.582
					c0.482-0.03,0.97-0.011,1.456-0.011H229.59z"/>
				<path clip-path="url(#SVGID_4_)" fill-rule="evenodd" clip-rule="evenodd" fill="#FFFFFF" d="M537.146,472.82
					c-1.271-0.556-2.188-0.86-3.008-1.33c-6.311-3.622-7.381-11.49-2.297-16.707c4.93-5.059,15.477-5.646,20.959-1.167
					c5.965,4.872,4.562,14.56-2.592,17.883c-0.641,0.297-1.293,0.568-2.211,0.97c0.537,0.295,0.783,0.509,1.064,0.572
					c7.59,1.717,11.42,8.456,9.4,16.453c-1.652,6.545-6.666,10.788-13.381,11.539c-3.141,0.352-6.215,0.159-9.215-0.709
					c-11.586-3.352-12.152-17.045-6.016-23.076c1.721-1.691,3.645-3.034,5.955-3.789
					C536.152,473.346,536.471,473.146,537.146,472.82 M532.412,486.507c0.01,2.901,0.498,5.634,2.037,8.104
					c3.777,6.062,12.348,6.058,16.078-0.012c2.936-4.773,2.695-12.192-0.539-16.695c-3.58-4.983-11.475-4.967-15.039,0.012
					C533.096,480.509,532.441,483.433,532.412,486.507 M550.758,462.388c-0.229-1.329-0.348-2.688-0.707-3.98
					c-1.004-3.604-3.768-5.594-7.543-5.561c-3.727,0.033-6.473,2.157-7.42,5.751c-0.668,2.539-0.656,5.087,0.041,7.609
					c1.539,5.576,8.607,7.601,12.814,3.65C550.076,467.856,550.541,465.191,550.758,462.388"/>
				<path clip-path="url(#SVGID_4_)" fill-rule="evenodd" clip-rule="evenodd" fill="#FFFFFF" d="M725.68,416.707v-42.09
					c0.213-0.017,0.584-0.07,0.955-0.071c5.674-0.016,11.35-0.123,17.02,0.007c2.695,0.062,5.451,0.289,8.055,0.943
					c6.09,1.531,10.049,5.421,11.602,11.591c1.127,4.484,1.43,9.03,0.35,13.545c-2.111,8.831-7.887,13.871-16.691,15.52
					c-2.037,0.382-4.143,0.501-6.219,0.531C735.707,416.757,730.664,416.707,725.68,416.707 M739.631,376.935
					c-2.346,0.163-4.715,0.367-7.088,0.475c-0.963,0.045-1.406,0.343-1.363,1.369c0.041,1.014-0.107,2.035-0.104,3.053
					c0.041,10.33,0.104,20.661,0.143,30.991c0.002,0.807,0.244,1.336,1.125,1.335c4.059-0.003,8.17,0.384,12.168-0.117
					c6.674-0.837,10.875-4.88,12.66-11.393c1.24-4.523,1.385-9.073,0.529-13.683c-0.842-4.547-2.926-8.228-7.221-10.283
					C747.068,377.049,743.35,377.015,739.631,376.935"/>
				<path clip-path="url(#SVGID_4_)" fill-rule="evenodd" clip-rule="evenodd" fill="#FFFFFF" d="M594.643,474.481
					c-1.779,2.688-3.947,4.955-7.1,5.917c-5.006,1.528-9.814,1.068-14.141-2.031c-3.471-2.486-4.619-6.222-4.973-10.263
					c-0.746-8.548,4.084-15.389,12.48-17.007c8.34-1.608,15.98,1.13,18.883,10.787c3.188,10.605,2.059,20.956-3.834,30.494
					c-4.375,7.081-12.688,10.345-20.543,8.443c-1.094-0.264-1.838-0.65-2.068-1.856c-0.158-0.831-0.555-1.617-0.941-2.692
					c0.971,0.623,1.695,1.134,2.461,1.573c4.086,2.342,9.035,1.764,12.561-1.345c3.891-3.432,5.545-8.002,6.521-12.857
					c0.596-2.975,0.797-6.028,1.176-9.047C594.965,474.56,594.805,474.52,594.643,474.481 M574.734,467.002
					c0.238,1.628,0.375,3.278,0.73,4.88c1.605,7.263,9.648,7.828,13.752,5.092c5.217-3.478,7.287-14.234,3.426-19.917
					c-3.838-5.647-12.293-5.516-15.625,0.436C575.363,460.448,574.555,463.589,574.734,467.002"/>
				<path clip-path="url(#SVGID_4_)" fill-rule="evenodd" clip-rule="evenodd" fill="#FFFFFF" d="M793.262,417.783
					c-3.088-0.563-6.283-0.793-9.24-1.754c-8.217-2.67-12.357-8.763-13.459-17.125c-0.615-4.677-0.086-9.262,1.932-13.507
					c3.389-7.137,9.467-10.506,17.076-11.436c4.186-0.512,8.336-0.23,12.385,0.987c8.271,2.487,13.686,9.437,14.316,18.251
					c0.342,4.787-0.182,9.456-2.475,13.707c-3.738,6.935-10.016,9.818-17.566,10.437c-0.965,0.079-1.939,0.011-2.908,0.011
					C793.301,417.497,793.281,417.641,793.262,417.783 M810.525,395.304c-0.18-1.484-0.328-3.472-0.678-5.421
					c-1.443-8.038-6.307-12.857-14.152-13.777c-9.473-1.11-16.645,3.721-18.541,12.775c-0.754,3.599-0.939,7.188-0.5,10.839
					c1.094,9.121,6.172,14.626,14.746,15.498c6.066,0.617,11.453-0.886,15.336-6.05
					C809.729,405.189,810.195,400.533,810.525,395.304"/>
				<path clip-path="url(#SVGID_4_)" fill-rule="evenodd" clip-rule="evenodd" fill="#FFFFFF" d="M646.496,417.803
					c-3.135-0.573-6.377-0.812-9.383-1.783c-8.025-2.6-12.203-8.508-13.395-16.697c-0.701-4.828-0.176-9.56,1.906-13.94
					c3.389-7.13,9.477-10.501,17.092-11.422c4.186-0.507,8.336-0.228,12.385,0.997c8.369,2.531,13.795,9.604,14.322,18.561
					c0.285,4.84-0.301,9.543-2.725,13.797c-3.809,6.684-10.002,9.436-17.375,10.029c-0.916,0.074-1.844,0.011-2.764,0.011
					C646.539,417.504,646.518,417.653,646.496,417.803 M663.488,395.188c-0.123-1.233-0.219-2.98-0.482-4.703
					c-1.303-8.465-6.113-13.447-14.189-14.377c-9.209-1.061-16.898,3.393-18.775,13.253c-0.727,3.813-0.816,7.611-0.213,11.433
					c1.35,8.538,6.266,13.562,14.51,14.416c6.367,0.66,11.945-0.998,15.787-6.598C662.801,404.71,663.275,400.246,663.488,395.188"
					/>
				<path clip-path="url(#SVGID_4_)" fill-rule="evenodd" clip-rule="evenodd" fill="#FFFFFF" d="M516.592,417.803
					c-3.133-0.574-6.379-0.808-9.379-1.788c-8.279-2.704-12.469-8.868-13.415-17.299c-0.69-6.153,0.283-12.002,4.231-17.055
					c3.73-4.771,8.837-6.96,14.667-7.69c4.23-0.53,8.432-0.252,12.525,0.991c8.184,2.485,13.551,9.302,14.252,17.99
					c0.41,5.091-0.166,10.033-2.75,14.499c-3.818,6.6-9.99,9.309-17.305,9.894c-0.916,0.074-1.842,0.011-2.764,0.011
					C516.635,417.505,516.613,417.654,516.592,417.803 M516.51,415.415c8.58,0.044,14.447-4.631,16.34-12.991
					c0.801-3.538,0.939-7.089,0.533-10.695c-1.021-9.055-6.031-14.604-14.488-15.605c-9.355-1.105-16.609,3.612-18.583,12.756
					c-0.808,3.742-0.949,7.481-0.455,11.273C501.111,409.787,507.178,415.368,516.51,415.415"/>
				<path clip-path="url(#SVGID_4_)" fill-rule="evenodd" clip-rule="evenodd" fill="#FFFFFF" d="M359.982,475.322
					c0,7.274,0.011,14.164-0.013,21.054c-0.003,0.997,0.557,1.09,1.311,1.058c5.719-0.246,11.437-0.488,17.154-0.733
					c0.43-0.019,0.859-0.049,1.411-0.081v3.761h-26.182v-50.491h25.843v4c-6.378-0.316-12.704-0.632-19.293-0.96v19.507
					c5.736-0.217,11.575-0.438,17.491-0.661v4.001C371.823,475.624,365.985,475.475,359.982,475.322"/>
				<path clip-path="url(#SVGID_4_)" fill-rule="evenodd" clip-rule="evenodd" fill="#FFFFFF" d="M322.48,374.773
					c5.77,0,11.6-0.316,17.378,0.092c5.382,0.381,8.184,3.079,8.993,7.409c0.807,4.317-1.278,8.811-5.474,11.134
					c-2.082,1.153-4.416,1.852-6.797,2.821c5.317,6.656,10.726,13.427,16.287,20.389c-2.235,0-4.426,0.043-6.612-0.045
					c-0.35-0.014-0.716-0.585-1.005-0.953c-4.708-5.985-9.424-11.965-14.086-17.985c-0.904-1.169-1.944-1.47-3.594-1.019
					c0.166,6.545,0.333,13.168,0.503,19.906h-5.594V374.773z M328.012,385.457c-0.107,0-0.215,0-0.322,0
					c0,2.428,0.039,4.854-0.02,7.28c-0.023,0.95,0.338,1.366,1.241,1.334c2.178-0.078,4.372-0.039,6.527-0.303
					c2.309-0.283,4.335-1.319,5.992-3.022c4.276-4.398,2.399-12.077-3.527-13.491c-2.673-0.637-5.578-0.29-8.375-0.429
					c-1.106-0.055-1.564,0.35-1.535,1.5C328.053,380.702,328.012,383.08,328.012,385.457"/>
				<path clip-path="url(#SVGID_4_)" fill-rule="evenodd" clip-rule="evenodd" fill="#FFFFFF" d="M610.021,486.82
					c0.375-0.805,0.594-1.527,1.006-2.115c7.209-10.295,14.441-20.574,21.668-30.858c0.25-0.356,0.525-0.709,0.705-1.103
					c0.551-1.217,1.32-1.712,2.736-1.324c0.889,0.244,1.9,0.046,2.801,0.046v31.451c2.252-0.157,4.496-0.313,6.742-0.472v4.36
					h-6.771v13.636h-6.021c0.191-4.519,0.385-9.043,0.58-13.621H610.021z M633.26,458.1c-5.99,8.064-11.93,16.037-17.312,24.637
					h17.312V458.1z"/>
				<path clip-path="url(#SVGID_4_)" fill-rule="evenodd" clip-rule="evenodd" fill="#FFFFFF" d="M825.957,373.466
					c0.523,0.423,1.061,0.759,1.479,1.206c9.436,10.115,18.857,20.242,28.279,30.369c0.547,0.587,1.074,1.189,1.756,1.946v-32.209
					h3.354c-0.262,14.114-0.525,28.297-0.793,42.797c-0.455-0.311-0.934-0.522-1.258-0.875
					c-9.684-10.608-19.354-21.231-29.02-31.855c-0.293-0.321-0.533-0.688-0.797-1.034c-0.123,0.06-0.246,0.118-0.369,0.177v32.563
					h-3.555C825.338,402.304,825.643,388.064,825.957,373.466"/>
				<path clip-path="url(#SVGID_4_)" fill-rule="evenodd" clip-rule="evenodd" fill="#FFFFFF" d="M679.033,373.433
					c0.555,0.47,1.078,0.826,1.496,1.278c8.127,8.753,16.213,17.544,24.383,26.259c1.814,1.935,3.91,3.605,5.613,5.157v-31.358
					h3.367c-0.27,14.15-0.537,28.362-0.816,43.134c-1.865-1.672-3.082-3.437-4.488-5.002c-1.461-1.625-2.873-3.293-4.324-4.926
					c-1.449-1.635-2.912-3.258-4.387-4.869c-1.508-1.648-3.037-3.278-4.559-4.912c-1.49-1.598-2.982-3.194-4.475-4.789
					c-1.494-1.595-2.988-3.188-4.486-4.78c-1.479-1.571-2.961-3.14-4.703-4.983v32.95h-3.574
					C678.395,402.314,678.709,388.074,679.033,373.433"/>
				<path clip-path="url(#SVGID_4_)" fill-rule="evenodd" clip-rule="evenodd" fill="#FFFFFF" d="M189.77,416.592h-3.81
					c0.315-14.241,0.632-28.514,0.954-43.047c0.466,0.351,1.014,0.649,1.417,1.084c8.094,8.712,16.143,17.467,24.275,26.142
					c1.876,2,4.034,3.735,5.79,5.343v-31.345h3.367c-0.277,14.159-0.555,28.367-0.833,42.576c-0.118,0.1-0.235,0.199-0.354,0.3
					c-1.957-2.256-3.901-4.522-5.874-6.765c-2.019-2.296-4.047-4.585-6.104-6.848s-4.15-4.491-6.233-6.73
					c-2.084-2.238-4.17-4.473-6.262-6.703c-2.088-2.225-4.184-4.44-6.552-6.954C189.056,394.818,189.339,405.639,189.77,416.592"/>
				<path clip-path="url(#SVGID_4_)" fill-rule="evenodd" clip-rule="evenodd" fill="#FFFFFF" d="M428.745,453.978V449.8h37.629
					v4.091c-5.085-0.213-10.237-0.427-15.65-0.651c-0.164,15.846-0.466,31.393,0.436,47.056h-3.539h-3.3
					c0-2.415-0.008-4.729,0.002-7.042c0.051-12.809,0.098-25.616,0.174-38.424c0.007-1.107-0.323-1.556-1.498-1.488
					c-4.404,0.252-8.812,0.432-13.219,0.635C429.446,453.991,429.112,453.978,428.745,453.978"/>
				<path clip-path="url(#SVGID_4_)" fill-rule="evenodd" clip-rule="evenodd" fill="#FFFFFF" d="M170.114,374.685h3.953
					c-0.091,1.555-0.212,3.17-0.274,4.787c-0.276,7.08-0.549,14.161-0.793,21.242c-0.1,2.898-0.643,5.7-1.933,8.294
					c-2.62,5.27-7.131,7.818-12.812,8.283c-2.588,0.213-5.25,0.088-7.827-0.262c-7.14-0.971-11.168-5.073-12.094-12.263
					c-0.32-2.488-0.301-5.029-0.316-7.548c-0.045-7.033-0.026-14.066-0.032-21.1c-0.001-0.476,0-0.952,0-1.441h5.618
					c-0.176,4.015-0.486,8.026-0.493,12.037c-0.01,5.718-0.201,11.48,0.416,17.143c0.919,8.432,6.554,11.207,14.303,10.79
					c7.751-0.418,10.997-5.204,11.88-11.973c0.43-3.302,0.358-6.678,0.389-10.021C170.153,386.69,170.114,380.726,170.114,374.685"
					/>
				<path clip-path="url(#SVGID_4_)" fill-rule="evenodd" clip-rule="evenodd" fill="#FFFFFF" d="M291.729,416.656v-41.984h21.484
					v3.344c-5.257-0.252-10.551-0.506-16.053-0.77v16.107c4.824-0.15,9.69-0.304,14.637-0.459v3.287h-14.694v18.103
					c5.531-0.214,10.94-0.424,16.436-0.637v3.009H291.729z"/>
				<path clip-path="url(#SVGID_4_)" fill-rule="evenodd" clip-rule="evenodd" fill="#FFFFFF" d="M280.493,374.694h4.188
					c-0.178,0.449-0.343,0.891-0.524,1.325c-5.508,13.14-11.03,26.273-16.498,39.43c-0.409,0.984-0.93,1.04-1.886,1.223
					c-2.534,0.484-3.098-1.021-3.841-2.878c-5.027-12.551-10.145-25.066-15.231-37.594c-0.198-0.489-0.384-0.984-0.636-1.634
					c1.98,0,3.849-0.052,5.708,0.047c0.336,0.018,0.776,0.594,0.936,1.003c4.366,11.246,8.701,22.504,13.046,33.759
					c0.156,0.404,0.349,0.794,0.524,1.189c0.148,0.046,0.298,0.092,0.446,0.137C271.316,398.694,275.907,386.688,280.493,374.694"/>
				<path clip-path="url(#SVGID_4_)" fill-rule="evenodd" clip-rule="evenodd" fill="#FFFFFF" d="M358.473,408.482
					c0.579,0.83,0.928,1.306,1.252,1.796c3.04,4.601,8.966,6.111,13.554,3.722c4.218-2.197,6.782-10.667,0.514-14.264
					c-1.842-1.057-3.835-1.848-5.749-2.778c-1.653-0.803-3.375-1.503-4.924-2.474c-3.958-2.482-5.414-6.196-4.838-10.741
					c0.527-4.156,2.762-7.123,6.644-8.665c4.876-1.936,9.729-1.933,14.444,0.65c0.924,0.506,1.183,1.015,0.704,2.065
					c-0.571,1.254-0.87,2.632-1.687,4.104c-0.317-0.636-0.621-1.276-0.951-1.904c-2.138-4.06-7.252-5.258-11.311-2.657
					c-3.452,2.214-4.431,7.514-1.779,10.775c1.036,1.273,2.52,2.264,3.962,3.105c1.493,0.872,3.182,1.41,4.786,2.092
					c0.446,0.188,0.9,0.361,1.344,0.554c5.889,2.554,8.023,5.667,7.732,11.271c-0.281,5.419-3.781,10.049-9.09,11.586
					c-5.112,1.48-10.162,1.409-14.85-1.575c-0.245-0.157-0.483-0.324-0.719-0.495c-0.117-0.084-0.221-0.185-0.308-0.26
					C357.598,412.555,357.981,410.771,358.473,408.482"/>
				<path clip-path="url(#SVGID_4_)" fill-rule="evenodd" clip-rule="evenodd" fill="#FFFFFF" d="M509.752,449.682v50.544h-6.137
					v-44.781c-2.825,1.511-5.617,3.005-8.191,4.382c-0.876-0.875-1.645-1.644-2.439-2.439
					C498.497,454.854,504.096,452.281,509.752,449.682"/>
				<path clip-path="url(#SVGID_4_)" fill-rule="evenodd" clip-rule="evenodd" fill="#FFFFFF" d="M452.559,416.697
					c0-5.249,0.034-10.433-0.032-15.615c-0.013-0.92-0.256-1.949-0.718-2.736c-4.368-7.447-8.808-14.854-13.227-22.271
					c-0.22-0.369-0.446-0.732-0.83-1.363c2.21,0,4.217-0.053,6.216,0.049c0.356,0.019,0.772,0.621,1.006,1.041
					c3.431,6.193,6.833,12.402,10.246,18.606c0.233,0.423,0.485,0.836,0.846,1.452c0.378-0.559,0.725-0.99,0.986-1.469
					c3.375-6.166,6.763-12.325,10.074-18.525c0.459-0.861,0.847-1.21,1.849-1.054c0.993,0.154,2.029,0.033,3.308,0.033
					c-0.366,0.591-0.657,1.056-0.944,1.522c-4.25,6.896-8.49,13.797-12.754,20.684c-0.739,1.194-1.022,2.434-1.005,3.85
					c0.064,5.234,0.026,10.47,0.026,15.797H452.559z"/>
				<path clip-path="url(#SVGID_4_)" fill-rule="evenodd" clip-rule="evenodd" fill="#FFFFFF" d="M547.961,374.672h22.307v3.263
					c-5.631-0.22-11.223-0.438-16.963-0.661v16.048c5.172-0.177,10.295-0.353,15.508-0.53v3.216h-15.746
					c0.146,6.811,0.295,13.71,0.445,20.683h-5.551V374.672z"/>
				<path clip-path="url(#SVGID_4_)" fill-rule="evenodd" clip-rule="evenodd" fill="#FFFFFF" d="M434.882,374.647v3.434
					c-4.245-0.179-8.472-0.356-12.844-0.541v39.016H416.6v-39.011c-4.441,0.183-8.711,0.357-12.986,0.533v-3.431H434.882z"/>
				<path clip-path="url(#SVGID_4_)" fill-rule="evenodd" clip-rule="evenodd" fill="#FFFFFF" d="M601.293,414.119
					c5.67-0.211,11.18-0.415,16.732-0.622v3.092h-22.191v-41.908h5.459V414.119z"/>
				
					<rect x="390.826" y="374.681" clip-path="url(#SVGID_4_)" fill-rule="evenodd" clip-rule="evenodd" fill="#FFFFFF" width="5.417" height="41.917"/>
				
					<rect x="233.593" y="374.683" clip-path="url(#SVGID_4_)" fill-rule="evenodd" clip-rule="evenodd" fill="#FFFFFF" width="5.442" height="41.91"/>
			</g>
		</g>
	</g>
</g>
<g id="white_box">
</g>
<g id="text">
	<g>
		<path fill="#FFFFFF" d="M717.126,788.874c-5.565,0-10.243,1.627-14.035,4.923c-3.793,3.297-5.89,8.203-6.294,13.203h39.918
			c-0.539-5-2.065-9.291-4.578-11.952C728.277,790.918,723.273,788.874,717.126,788.874z"/>
		<path fill="#FFFFFF" d="M494.854,788.874c-5.565,0-10.244,1.627-14.035,4.923c-3.793,3.297-5.89,8.203-6.294,13.203h39.918
			c-0.539-5-2.065-9.291-4.578-11.952C506.006,790.918,501.002,788.874,494.854,788.874z"/>
		<path fill="#FFFFFF" d="M345.013,690.964c6.013,0,11.016-2.025,15.011-6.076c3.994-4.051,5.991-10.226,5.991-18.526
			c0-7.823-2.009-13.751-6.024-17.782c-4.017-4.03-9.01-6.046-14.978-6.046c-6.059,0-11.085,2.006-15.079,6.017
			c-3.995,4.012-5.991,10.067-5.991,18.169s1.996,14.168,5.991,18.198C333.928,688.948,338.954,690.964,345.013,690.964z"/>
		<path fill="#FFFFFF" d="M551.566,648.073c-3.746-4.011-8.223-6.017-13.428-6.017c-5.162,0-9.729,2.135-13.699,6.403
			c-3.971,4.27-5.957,10.476-5.957,18.616c0,8.142,1.861,14.158,5.586,18.05c3.725,3.893,8.234,5.838,13.531,5.838
			c5.385,0,9.996-2.016,13.832-6.047c3.838-4.03,5.756-10.275,5.756-18.734C557.188,658.121,555.314,652.085,551.566,648.073z"/>
		<path fill="#FFFFFF" d="M106,525v403h786V525H106z M322.53,640.687c6.147-4.686,13.642-7.029,22.483-7.029
			c9.828,0,17.86,2.85,24.099,8.549c6.237,5.698,9.356,13.572,9.356,23.619c0,8.142-1.38,14.545-4.14,19.211
			c-2.76,4.667-6.777,8.291-12.049,10.872c-5.274,2.581-11.029,3.872-17.266,3.872c-10.008,0-18.097-2.839-24.267-8.519
			c-6.171-5.679-9.256-13.859-9.256-24.543C311.49,655.004,315.169,646.326,322.53,640.687z M234.65,694.091
			c-6.664-3.832-11.736-9.382-15.213-16.649c-3.479-7.268-5.217-15.071-5.217-23.411c0-9.094,1.962-17.027,5.89-23.799
			c3.927-6.771,9.514-11.914,16.762-15.428c7.247-3.516,15.224-5.272,23.93-5.272c9.872,0,18.175,2.225,24.906,6.672
			c6.731,4.448,11.42,10.703,14.069,18.765l-12.857,2.681c-2.289-6.354-5.61-10.98-9.963-13.88
			c-4.353-2.898-9.828-4.349-16.425-4.349c-7.584,0-13.923,1.608-19.016,4.825c-5.094,3.217-8.673,7.535-10.737,12.957
			c-2.064,5.42-3.096,11.011-3.096,16.769c0,7.427,1.222,13.909,3.668,19.45c2.445,5.539,6.249,9.68,11.41,12.42
			c5.16,2.74,10.748,4.11,16.762,4.11c7.314,0,13.507-1.866,18.579-5.6c5.071-3.732,8.503-9.272,10.299-16.62l13.059,2.919
			c-2.738,9.492-7.663,16.729-14.775,21.714c-7.113,4.983-15.809,7.476-26.084,7.476C249.964,699.84,241.314,697.924,234.65,694.091
			z M345.012,833.224c-3.007,4.111-7.327,7.308-12.958,9.592c-5.632,2.283-11.971,3.425-19.016,3.425
			c-8.931,0-16.415-1.152-22.45-3.455c-6.036-2.303-10.77-5.769-14.203-10.396c-3.433-4.626-5.24-9.858-5.419-15.696l12.319-0.953
			c0.583,4.369,1.94,7.952,4.072,10.753c2.131,2.799,5.441,5.062,9.929,6.791c4.487,1.727,9.536,2.591,15.146,2.591
			c4.981,0,9.379-0.655,13.193-1.966c3.814-1.311,6.653-3.107,8.516-5.391c1.861-2.284,2.793-4.775,2.793-7.477
			c0-2.74-0.898-5.133-2.692-7.178c-1.795-2.046-4.757-3.763-8.886-5.153c-2.648-0.913-8.505-2.333-17.569-4.259
			c-9.065-1.927-15.415-3.743-19.05-5.451c-4.712-2.184-8.224-4.895-10.535-8.131c-2.312-3.237-3.467-6.86-3.467-10.872
			c0-4.408,1.414-8.528,4.241-12.36c2.828-3.833,6.956-6.741,12.386-8.728c5.429-1.985,11.465-2.979,18.107-2.979
			c7.314,0,13.766,1.042,19.353,3.128c5.587,2.084,9.884,5.152,12.891,9.203c3.006,4.051,4.622,8.638,4.847,13.761l-12.521,0.834
			c-0.673-5.52-2.951-9.689-6.833-12.51c-3.882-2.819-9.615-4.229-17.199-4.229c-7.899,0-13.654,1.281-17.266,3.842
			c-3.613,2.562-5.419,5.65-5.419,9.264c0,3.138,1.279,5.719,3.837,7.744c2.513,2.025,9.076,4.101,19.689,6.225
			c10.613,2.125,17.894,3.982,21.844,5.57c5.744,2.344,9.984,5.312,12.722,8.906c2.737,3.594,4.106,7.734,4.106,12.42
			C349.522,824.735,348.018,829.114,345.012,833.224z M414.38,840.015c-5.363,4.111-11.948,6.166-19.757,6.166
			c-9.784,0-17.648-2.83-23.594-8.488c-5.947-5.66-8.919-13.771-8.919-24.335c0-6.83,1.279-12.808,3.837-17.931
			s6.451-8.965,11.679-11.527c5.227-2.561,10.915-3.842,17.064-3.842c7.763,0,14.113,1.737,19.05,5.213
			c4.936,3.475,8.1,8.409,9.492,14.803l-11.78,1.608c-1.122-4.249-3.108-7.446-5.957-9.591c-2.851-2.145-6.294-3.217-10.333-3.217
			c-6.104,0-11.062,1.936-14.876,5.809c-3.815,3.871-5.722,9.998-5.722,18.377c0,8.499,1.839,14.675,5.52,18.526
			c3.679,3.853,8.482,5.778,14.405,5.778c4.756,0,8.728-1.29,11.915-3.872c3.186-2.581,5.205-6.553,6.058-11.914l11.915,1.37
			C423.074,830.216,419.742,835.905,414.38,840.015z M447,845h-12v-64h12V845z M447,770h-12v-13h12V770z M447,661.596V698h-12
			v-40.753c0-4.766-0.914-8.34-2.889-10.723s-5.169-3.574-9.656-3.574c-3.411,0-6.545,0.795-9.439,2.383
			c-2.895,1.589-4.878,3.912-6.179,6.97c-1.302,3.059-1.837,7.467-1.837,13.225V698h-12v-63h11v8.963
			c2-3.098,4.981-5.59,8.707-7.476c3.725-1.887,7.843-2.83,12.6-2.83c5.295,0,9.576,0.974,12.964,2.919
			c3.388,1.946,5.747,4.667,7.138,8.161c5.655-7.387,12.999-11.08,22.064-11.08c7.09,0,12.767,1.737,16.582,5.213
			c3.813,3.475,5.945,8.826,5.945,16.054V698h-13v-39.502c0-4.289-0.149-7.377-0.935-9.263c-0.785-1.887-2.089-3.405-4.152-4.558
			c-2.064-1.151-4.427-1.728-7.209-1.728c-5.026,0-9.301,1.479-12.622,4.438C448.761,650.347,447,655.083,447,661.596z M527.165,816
			h-53.313c0.448,7,2.669,12.201,6.665,15.895c3.994,3.693,8.975,5.505,14.944,5.505c4.442,0,8.234-1.05,11.375-3.115
			c3.141-2.064,5.632-5.37,7.473-9.897l12.521,1.365c-1.976,6.475-5.633,11.495-10.973,15.069c-5.341,3.574-12.162,5.36-20.463,5.36
			c-10.457,0-18.747-2.85-24.873-8.549c-6.125-5.698-9.188-13.691-9.188-23.978c0-10.643,3.096-18.903,9.289-24.781
			c6.193-5.877,14.226-8.816,24.099-8.816c9.559,0,17.367,2.88,23.426,8.638c6.058,5.759,9.087,13.931,9.087,24.375
			C527.232,813.706,527.21,815,527.165,816z M527.722,697.517c-3.209-1.509-5.722-3.415-7.722-5.719V723h-12v-88h11v8.308
			c2-3.217,5.317-5.629,8.593-7.238c3.275-1.607,7.136-2.412,11.804-2.412c6.102,0,11.43,1.391,16.098,4.17
			c4.666,2.78,8.161,6.701,10.54,11.766c2.379,5.062,3.554,10.613,3.554,16.649c0,6.474-1.319,12.302-3.944,17.483
			c-2.627,5.184-6.444,9.154-11.446,11.914c-5.006,2.761-10.175,4.141-15.696,4.141C534.464,699.78,530.931,699.025,527.722,697.517
			z M600,845h-12v-38.731c0-4.368-0.463-7.635-1.405-9.799c-0.942-2.165-2.61-3.893-5.011-5.184c-2.4-1.29-5.214-1.936-8.445-1.936
			c-5.161,0-9.693,1.45-13.439,4.349c-3.748,2.899-5.699,8.399-5.699,16.501V845h-12v-64h11v9.482
			c5-6.949,12.807-10.425,22.727-10.425c4.307,0,8.254,0.686,11.867,2.055c3.611,1.371,6.309,3.168,8.104,5.392
			c1.794,2.225,2.98,4.865,3.699,7.923c0.448,1.986,0.603,5.461,0.603,10.425V845z M596.533,697.636
			c-3.658-1.43-6.373-3.227-8.145-5.391c-1.773-2.165-2.975-4.815-3.692-7.953c-0.494-2.104-0.696-5.44-0.696-10.008V635h12v35.174
			c0,5.6,0.26,9.373,0.754,11.318c0.764,2.82,2.387,5.034,4.854,6.642c2.468,1.609,5.523,2.413,9.158,2.413
			s7.047-0.824,10.233-2.472c3.187-1.648,5.566-3.893,6.891-6.732c1.323-2.839,2.109-6.959,2.109-12.36V635h12v63h-11v-8.942
			c-6,7.148-13.111,10.723-22.67,10.723C604.111,699.78,600.19,699.065,596.533,697.636z M667.28,840.015
			c-5.363,4.111-11.949,6.166-19.757,6.166c-9.784,0-17.648-2.83-23.594-8.488c-5.947-5.66-8.92-13.771-8.92-24.335
			c0-6.83,1.279-12.808,3.837-17.931c2.559-5.123,6.451-8.965,11.68-11.527c5.228-2.561,10.915-3.842,17.064-3.842
			c7.763,0,14.112,1.737,19.05,5.213c4.936,3.475,8.1,8.409,9.491,14.803l-11.78,1.608c-1.122-4.249-3.108-7.446-5.957-9.591
			c-2.851-2.145-6.294-3.217-10.333-3.217c-6.104,0-11.062,1.936-14.876,5.809c-3.815,3.871-5.723,9.998-5.723,18.377
			c0,8.499,1.84,14.675,5.521,18.526c3.679,3.853,8.481,5.778,14.405,5.778c4.756,0,8.728-1.29,11.914-3.872
			c3.187-2.581,5.206-6.553,6.059-11.914l11.915,1.37C675.974,830.216,672.642,835.905,667.28,840.015z M669.67,697.338
			c-2.423-1.23-4.166-2.85-5.152-4.854c-0.988-2.006-1.518-6.226-1.518-12.659V643h-9v-8h9v-15.58l12-6.434V635h12v8h-12v37.42
			c0,3.059,0.273,5.024,0.701,5.897c0.426,0.874,1.152,1.569,2.117,2.085c0.965,0.517,2.359,0.774,4.155,0.774
			c1.346,0,3.126-0.139,5.325-0.417l1.754,9.472c-3.411,0.635-6.46,0.953-9.152,0.953
			C675.502,699.185,672.094,698.568,669.67,697.338z M749.437,816h-53.312c0.448,7,2.669,12.201,6.664,15.895
			c3.993,3.693,8.975,5.505,14.943,5.505c4.443,0,8.234-1.05,11.376-3.115c3.141-2.064,5.632-5.37,7.473-9.897l12.521,1.365
			c-1.976,6.475-5.633,11.495-10.973,15.069c-5.341,3.574-12.162,5.36-20.464,5.36c-10.457,0-18.747-2.85-24.872-8.549
			c-6.126-5.698-9.188-13.691-9.188-23.978c0-10.643,3.097-18.903,9.289-24.781c6.193-5.877,14.226-8.816,24.099-8.816
			c9.559,0,17.367,2.88,23.426,8.638c6.058,5.759,9.087,13.931,9.087,24.375C749.504,813.706,749.481,815,749.437,816z M760.948,669
			h-53.312c0.448,7,2.669,12.501,6.664,16.194c3.993,3.693,8.975,5.655,14.943,5.655c4.443,0,8.234-0.976,11.376-3.041
			c3.141-2.064,5.632-5.332,7.473-9.859l12.521,1.384c-1.976,6.474-5.633,11.505-10.973,15.079
			c-5.341,3.574-12.162,5.364-20.464,5.364c-10.457,0-18.747-2.848-24.872-8.547c-6.126-5.698-9.188-13.689-9.188-23.976
			c0-10.643,3.097-18.902,9.289-24.781c6.193-5.877,14.226-8.815,24.099-8.815c9.559,0,17.367,2.88,23.426,8.638
			c6.058,5.759,9.087,13.631,9.087,24.075C761.016,667.006,760.993,668,760.948,669z M810.357,647.061
			c-2.962-1.549-5.924-2.323-8.886-2.323c-2.648,0-5.026,0.705-7.136,2.115c-2.109,1.409-3.516,3.365-4.413,5.867
			c-1.347,3.812-1.923,7.982-1.923,12.51V698h-12v-63h11v9.678c2-4.487,5.148-7.446,7.506-8.876c2.355-1.43,4.846-2.145,7.673-2.145
			c4.083,0,8.184,1.152,12.402,3.455L810.357,647.061z"/>
		<path fill="#FFFFFF" d="M728.638,642.474c-5.565,0-10.243,1.827-14.035,5.123c-3.793,3.297-5.89,7.403-6.294,13.403h39.918
			c-0.539-6-2.065-9.491-4.578-12.152C739.789,644.718,734.785,642.474,728.638,642.474z"/>
	</g>
</g>
</svg>
