<?xml version="1.0" encoding="utf-8"?>
<!-- Generator: Adobe Illustrator 16.0.0, SVG Export Plug-In . SVG Version: 6.00 Build 0)  -->
<!DOCTYPE svg PUBLIC "-//W3C//DTD SVG 1.1//EN" "http://www.w3.org/Graphics/SVG/1.1/DTD/svg11.dtd">
<svg version="1.1"
	 id="Layer_1" xmlns:dc="http://purl.org/dc/elements/1.1/" xmlns:cc="http://creativecommons.org/ns#" xmlns:rdf="http://www.w3.org/1999/02/22-rdf-syntax-ns#" xmlns:svg="http://www.w3.org/2000/svg" xmlns:sodipodi="http://sodipodi.sourceforge.net/DTD/sodipodi-0.dtd" xmlns:inkscape="http://www.inkscape.org/namespaces/inkscape" inkscape:version="0.91 r13725" sodipodi:docname="ssc.svg"
	 xmlns="http://www.w3.org/2000/svg" xmlns:xlink="http://www.w3.org/1999/xlink" x="0px" y="0px" width="348.42px"
	 height="303.926px" viewBox="0 0 348.42 303.926" enable-background="new 0 0 348.42 303.926" xml:space="preserve">
<sodipodi:namedview  fit-margin-left="0" inkscape:cy="70.556427" inkscape:cx="16.41987" inkscape:zoom="1.2152124" showgrid="false" guidetolerance="10" gridtolerance="10" objecttolerance="10" bordercolor="#666666" pagecolor="#7590ff" borderopacity="1" fit-margin-top="0" id="namedview49" inkscape:current-layer="Layer_1" inkscape:window-maximized="1" inkscape:window-y="24" inkscape:window-x="1985" inkscape:window-height="1056" inkscape:window-width="1855" inkscape:pageshadow="2" inkscape:pageopacity="0" fit-margin-right="0" fit-margin-bottom="0">
	</sodipodi:namedview>
<g>
	<g>
		<defs>
			<rect id="SVGID_1_" x="28.141" y="15.177" width="292.139" height="273.572"/>
		</defs>
		<clipPath id="SVGID_2_">
			<use xlink:href="#SVGID_1_"  overflow="visible"/>
		</clipPath>
		<g clip-path="url(#SVGID_2_)">
			<defs>
				<rect id="SVGID_3_" x="59.565" y="31.885" width="231.948" height="137.64"/>
			</defs>
			<clipPath id="SVGID_4_">
				<use xlink:href="#SVGID_3_"  overflow="visible"/>
			</clipPath>
			<path clip-path="url(#SVGID_4_)" fill-rule="evenodd" clip-rule="evenodd" fill="#FFFFFF" d="M282.78,36.259
				c0.244,0.305,0.41,0.628,0.22,1.023c-0.198,0.411-0.572,0.479-0.976,0.482c-0.129,0-0.258,0-0.387,0H69.189
				c-0.129,0-0.258,0-0.387,0c-0.403-0.003-0.777-0.071-0.977-0.482c-0.19-0.396-0.024-0.719,0.22-1.023H282.78z"/>
			<path clip-path="url(#SVGID_4_)" fill-rule="evenodd" clip-rule="evenodd" fill="#FFFFFF" d="M146.468,163.039
				c-0.379-0.061-0.777-0.066-1.131-0.194c-0.64-0.232-1.255-0.534-1.876-0.814c-0.214-0.097-0.254-0.239-0.18-0.484
				c0.129-0.421,0.185-0.863,0.282-1.295c0.025-0.114,0.089-0.22,0.136-0.329c0.086,0.079,0.202,0.143,0.255,0.24
				c0.581,1.071,1.451,1.75,2.654,1.984c2.281,0.445,4.168-1.349,3.811-3.639c-0.111-0.715-0.5-1.299-1.117-1.659
				c-0.712-0.417-1.472-0.752-2.214-1.117c-0.551-0.271-1.135-0.484-1.652-0.808c-1.341-0.838-1.985-2.062-1.849-3.657
				c0.138-1.616,0.938-2.776,2.457-3.371c1.618-0.633,3.238-0.622,4.821,0.147c0.216,0.104,0.411,0.25,0.613,0.375
				c-0.207,0.645-0.404,1.257-0.601,1.869c-0.039,0.008-0.077,0.016-0.115,0.023c-0.101-0.188-0.205-0.373-0.3-0.564
				c-0.911-1.835-3.504-2.062-4.711-0.41c-0.854,1.169-0.677,2.832,0.492,3.685c0.661,0.481,1.439,0.806,2.18,1.173
				c0.472,0.234,0.985,0.387,1.455,0.626c1.977,1.007,2.656,2.619,2.038,4.754c-0.557,1.926-2.134,3.155-4.306,3.374
				c-0.211,0.021-0.419,0.061-0.629,0.092H146.468z"/>
			<path clip-path="url(#SVGID_4_)" fill-rule="evenodd" clip-rule="evenodd" fill="#FFFFFF" d="M131.196,51.488
				c-0.687,2.234-1.362,4.433-2.037,6.63c-0.277,0.901-0.547,1.806-0.837,2.702c-0.044,0.135-0.196,0.343-0.282,0.335
				c-0.313-0.027-0.696,0.211-0.935-0.191c-0.342-0.579-0.689-1.154-1.031-1.732c-0.967-1.637-2.285-2.922-3.893-3.922
				c-2.815-1.75-5.875-2.793-9.162-3.174c-3.487-0.404-6.972-0.397-10.438,0.185c-4.927,0.827-9.247,2.854-12.648,6.598
				c-2.606,2.869-4.311,6.244-5.397,9.943c-1.445,4.916-1.758,9.951-1.595,15.04c0.121,3.773,0.737,7.447,2.019,11.006
				c1.578,4.385,4.073,8.158,7.592,11.21c4.147,3.597,9.023,5.176,14.496,5.163c6.777-0.015,12.812-2.049,17.973-6.451
				c1.615-1.377,3.012-3.014,4.507-4.532c0.09-0.091,0.171-0.19,0.285-0.318c0.313,0.195,0.637,0.375,0.931,0.593
				c0.085,0.062,0.137,0.239,0.125,0.354c-0.328,3.044-0.668,6.086-0.995,9.129c-0.033,0.302-0.155,0.477-0.426,0.622
				c-4.904,2.638-10.105,4.395-15.598,5.302c-3.826,0.632-7.68,0.878-11.548,0.661c-6.362-0.354-12.392-1.911-17.873-5.269
				c-7.09-4.342-11.584-10.634-13.792-18.59c-1.182-4.257-1.465-8.618-1.219-13.018c0.254-4.551,1.194-8.961,2.981-13.153
				c3.234-7.59,8.751-12.945,16.238-16.338c4.038-1.83,8.267-2.898,12.662-3.376c4.012-0.436,8.027-0.475,12.045-0.142
				c6.112,0.508,11.957,2.061,17.55,4.573C130.983,51.369,131.068,51.419,131.196,51.488"/>
			<path clip-path="url(#SVGID_4_)" fill-rule="evenodd" clip-rule="evenodd" fill="#FFFFFF" d="M220.771,47.323
				c0.813,0.077,1.562,0.134,2.309,0.22c3.781,0.439,7.567,0.445,11.356,0.132c0.712-0.06,1.422-0.168,2.123-0.301
				c0.336-0.064,0.475,0.031,0.611,0.329c3.586,7.763,7.405,15.41,11.512,22.911c1.792,3.273,3.646,6.513,5.474,9.767
				c0.069,0.124,0.146,0.244,0.255,0.428c0.117-0.19,0.212-0.341,0.303-0.493c5.849-9.684,10.944-19.753,15.527-30.089
				c0.371-0.836,0.776-1.657,1.13-2.501c0.145-0.343,0.325-0.422,0.679-0.357c2.088,0.38,4.191,0.635,6.316,0.488
				c1.005-0.069,2.001-0.254,3.002-0.387c-0.042,0.071-0.114,0.2-0.191,0.325c-3.846,6.248-7.754,12.459-11.518,18.757
				c-2.624,4.393-5.045,8.906-7.568,13.36c-1.317,2.326-2.654,4.642-3.991,6.957c-0.442,0.767-0.592,1.577-0.599,2.462
				c-0.059,7.202,0.185,14.397,0.472,21.591c0.054,1.345,0.14,2.688,0.209,4.031c0.005,0.096,0,0.192,0,0.397
				c-4.51-0.773-8.993-0.838-13.525,0c0-0.234-0.003-0.386,0.001-0.538c0.183-7.255,0.369-14.509,0.546-21.764
				c0.035-1.43,0.038-2.862,0.032-4.293c-0.001-0.227-0.098-0.473-0.213-0.674c-6.613-11.606-13.47-23.069-20.492-34.433
				c-1.195-1.935-2.338-3.9-3.504-5.853C220.946,47.665,220.879,47.525,220.771,47.323"/>
			<path clip-path="url(#SVGID_4_)" fill-rule="evenodd" clip-rule="evenodd" fill="#FFFFFF" d="M196.689,115.28
				c-2.337-0.181-4.642-0.491-6.947-0.5c-2.308-0.01-4.616,0.283-6.912,0.443c0-0.453-0.02-0.949,0.003-1.443
				c0.288-6.104,0.694-12.205,0.843-18.312c0.139-5.68,0.008-11.365-0.014-17.049c-0.022-6.026-0.045-12.054-0.09-18.08
				c-0.015-2.018-0.099-4.035-0.152-6.053c-0.003-0.097-0.016-0.194-0.027-0.343c-6.796,0.007-13.568,0.092-20.371,0.679
				c0.637-2.438,0.635-4.842,0.006-7.257c17.653,0.783,35.264,0.736,52.921,0.005c-0.56,2.415-0.696,4.819,0.058,7.284
				c-6.637-0.765-13.191-0.612-19.788-0.714c-0.01,0.202-0.023,0.368-0.024,0.534c-0.06,9.261-0.138,18.522-0.172,27.783
				c-0.027,7.474-0.056,14.946,0.027,22.418c0.035,3.144,0.354,6.284,0.547,9.426C196.619,114.483,196.656,114.864,196.689,115.28"
				/>
			<path clip-path="url(#SVGID_4_)" fill-rule="evenodd" clip-rule="evenodd" fill="#FFFFFF" d="M156.644,115.281
				c-2.363-0.185-4.684-0.51-7.004-0.509c-2.322,0.001-4.644,0.328-6.992,0.514c-0.01-0.085-0.033-0.166-0.025-0.245
				c0.897-10.147,0.976-20.324,1.013-30.501c0.026-7.3,0.015-14.601,0-21.9c-0.01-5.057-0.333-10.096-0.905-15.119
				c-0.004-0.04,0.003-0.082,0.009-0.204c4.66,0.736,9.315,0.818,14.035-0.046c-0.069,0.643-0.148,1.187-0.186,1.733
				c-0.23,3.397-0.541,6.792-0.659,10.192c-0.396,11.376-0.26,22.757-0.165,34.136c0.037,4.608,0.176,9.216,0.346,13.821
				c0.098,2.63,0.351,5.253,0.533,7.88C156.647,115.101,156.644,115.171,156.644,115.281"/>
			<path clip-path="url(#SVGID_4_)" fill-rule="evenodd" clip-rule="evenodd" fill="#FFFFFF" d="M255.166,156.841
				c-8.845,0-17.689,0-26.534-0.003c-0.213,0-0.432-0.008-0.637-0.058c-0.396-0.097-0.642-0.437-0.601-0.823
				c0.042-0.393,0.248-0.667,0.659-0.734c0.182-0.03,0.369-0.043,0.555-0.043c17.704-0.003,35.409-0.003,53.112-0.001
				c0.144,0,0.287,0.004,0.429,0.023c0.471,0.064,0.782,0.397,0.776,0.816c-0.005,0.401-0.31,0.735-0.753,0.804
				c-0.168,0.025-0.343,0.018-0.514,0.018C272.828,156.841,263.998,156.841,255.166,156.841"/>
			<path clip-path="url(#SVGID_4_)" fill-rule="evenodd" clip-rule="evenodd" fill="#FFFFFF" d="M95.823,155.205
				c8.759,0,17.518,0,26.277,0c0.242,0,0.486-0.024,0.728-0.01c0.447,0.028,0.759,0.341,0.782,0.759
				c0.024,0.429-0.235,0.769-0.686,0.842c-0.251,0.039-0.512,0.022-0.769,0.022c-17.617,0.001-35.235,0.001-52.854,0.001
				c-0.172,0-0.346,0.013-0.514-0.012c-0.422-0.061-0.729-0.434-0.708-0.838c0.021-0.428,0.33-0.732,0.779-0.761
				c0.143-0.01,0.286-0.004,0.429-0.004H95.823z"/>
			<path clip-path="url(#SVGID_4_)" fill-rule="evenodd" clip-rule="evenodd" fill="#FFFFFF" d="M186.49,154.563
				c-0.375-0.163-0.645-0.253-0.887-0.392c-1.86-1.068-2.176-3.388-0.677-4.925c1.453-1.492,4.562-1.665,6.179-0.345
				c1.758,1.437,1.345,4.292-0.765,5.271c-0.188,0.088-0.381,0.168-0.651,0.286c0.158,0.087,0.23,0.15,0.313,0.169
				c2.237,0.506,3.367,2.492,2.771,4.851c-0.487,1.929-1.965,3.181-3.944,3.401c-0.926,0.104-1.832,0.047-2.717-0.209
				c-3.416-0.988-3.582-5.024-1.773-6.803c0.508-0.499,1.074-0.895,1.756-1.117C186.197,154.718,186.291,154.66,186.49,154.563
				 M185.095,158.598c0.003,0.855,0.146,1.661,0.601,2.39c1.113,1.787,3.64,1.785,4.74-0.004c0.865-1.407,0.794-3.594-0.159-4.922
				c-1.056-1.469-3.383-1.464-4.434,0.004C185.296,156.83,185.104,157.692,185.095,158.598 M190.503,151.488
				c-0.067-0.392-0.103-0.792-0.208-1.173c-0.296-1.063-1.111-1.649-2.224-1.64c-1.099,0.01-1.908,0.636-2.188,1.695
				c-0.197,0.748-0.193,1.5,0.012,2.243c0.454,1.644,2.538,2.24,3.778,1.076C190.302,153.1,190.439,152.314,190.503,151.488"/>
			<path clip-path="url(#SVGID_4_)" fill-rule="evenodd" clip-rule="evenodd" fill="#FFFFFF" d="M242.069,138.021v-12.407
				c0.063-0.006,0.173-0.021,0.282-0.021c1.672-0.005,3.346-0.036,5.017,0.002c0.795,0.019,1.607,0.085,2.375,0.278
				c1.795,0.451,2.962,1.598,3.42,3.417c0.332,1.322,0.422,2.662,0.104,3.993c-0.623,2.603-2.325,4.089-4.921,4.575
				c-0.601,0.112-1.222,0.147-1.833,0.156C245.025,138.036,243.539,138.021,242.069,138.021 M246.183,126.296
				c-0.691,0.048-1.39,0.108-2.09,0.14c-0.284,0.014-0.414,0.102-0.401,0.404c0.012,0.298-0.032,0.6-0.031,0.899
				c0.013,3.046,0.031,6.091,0.042,9.137c0.001,0.237,0.072,0.394,0.332,0.394c1.196-0.001,2.408,0.112,3.587-0.035
				c1.968-0.246,3.206-1.438,3.732-3.358c0.365-1.334,0.408-2.675,0.156-4.033c-0.248-1.341-0.862-2.426-2.129-3.032
				C248.375,126.331,247.278,126.32,246.183,126.296"/>
			<path clip-path="url(#SVGID_4_)" fill-rule="evenodd" clip-rule="evenodd" fill="#FFFFFF" d="M203.44,155.053
				c-0.524,0.792-1.164,1.461-2.093,1.744c-1.477,0.451-2.894,0.315-4.169-0.599c-1.023-0.733-1.362-1.834-1.466-3.025
				c-0.22-2.52,1.204-4.537,3.679-5.014c2.459-0.475,4.711,0.333,5.567,3.18c0.939,3.127,0.606,6.178-1.131,8.99
				c-1.29,2.087-3.74,3.049-6.056,2.488c-0.322-0.077-0.542-0.191-0.61-0.547c-0.046-0.245-0.163-0.477-0.277-0.794
				c0.286,0.184,0.5,0.335,0.726,0.464c1.204,0.69,2.664,0.52,3.703-0.396c1.146-1.012,1.635-2.358,1.922-3.79
				c0.176-0.877,0.235-1.777,0.347-2.667C203.535,155.077,203.488,155.064,203.44,155.053 M197.571,152.848
				c0.07,0.479,0.11,0.967,0.216,1.438c0.473,2.141,2.844,2.308,4.054,1.501c1.538-1.025,2.148-4.196,1.01-5.871
				c-1.132-1.665-3.624-1.626-4.606,0.128C197.757,150.917,197.519,151.842,197.571,152.848"/>
			<path clip-path="url(#SVGID_4_)" fill-rule="evenodd" clip-rule="evenodd" fill="#FFFFFF" d="M261.993,138.338
				c-0.911-0.166-1.853-0.233-2.725-0.517c-2.422-0.787-3.643-2.584-3.968-5.049c-0.181-1.379-0.025-2.73,0.569-3.981
				c0.999-2.104,2.791-3.098,5.034-3.371c1.234-0.151,2.458-0.068,3.651,0.291c2.438,0.733,4.034,2.781,4.221,5.38
				c0.101,1.411-0.054,2.788-0.729,4.041c-1.103,2.044-2.953,2.895-5.179,3.076c-0.284,0.023-0.572,0.004-0.857,0.004
				C262.004,138.254,261.998,138.296,261.993,138.338 M267.082,131.711c-0.053-0.438-0.097-1.023-0.2-1.598
				c-0.425-2.37-1.858-3.79-4.172-4.062c-2.792-0.328-4.906,1.097-5.466,3.766c-0.222,1.062-0.276,2.119-0.147,3.195
				c0.322,2.689,1.819,4.312,4.348,4.569c1.788,0.182,3.376-0.262,4.521-1.784C266.847,134.626,266.984,133.253,267.082,131.711"/>
			<path clip-path="url(#SVGID_4_)" fill-rule="evenodd" clip-rule="evenodd" fill="#FFFFFF" d="M218.727,138.344
				c-0.924-0.169-1.88-0.239-2.766-0.525c-2.366-0.767-3.598-2.509-3.949-4.923c-0.207-1.423-0.052-2.818,0.562-4.109
				c0.998-2.102,2.793-3.096,5.038-3.367c1.234-0.149,2.458-0.067,3.651,0.294c2.467,0.746,4.066,2.831,4.222,5.472
				c0.084,1.427-0.089,2.813-0.803,4.067c-1.123,1.971-2.949,2.781-5.122,2.956c-0.271,0.022-0.544,0.004-0.815,0.004
				L218.727,138.344 M223.735,131.677c-0.036-0.363-0.064-0.878-0.142-1.387c-0.385-2.495-1.803-3.964-4.184-4.238
				c-2.715-0.312-4.981,1-5.534,3.907c-0.215,1.124-0.241,2.244-0.063,3.37c0.398,2.518,1.848,3.998,4.277,4.25
				c1.877,0.194,3.521-0.294,4.654-1.945C223.533,134.485,223.673,133.168,223.735,131.677"/>
			<path clip-path="url(#SVGID_4_)" fill-rule="evenodd" clip-rule="evenodd" fill="#FFFFFF" d="M180.431,138.344
				c-0.923-0.169-1.88-0.238-2.765-0.527c-2.44-0.797-3.676-2.614-3.954-5.1c-0.204-1.813,0.083-3.538,1.247-5.027
				c1.1-1.406,2.605-2.052,4.324-2.268c1.247-0.156,2.485-0.074,3.692,0.293c2.412,0.732,3.994,2.742,4.201,5.303
				c0.121,1.501-0.049,2.958-0.811,4.274c-1.126,1.945-2.945,2.744-5.102,2.917c-0.271,0.021-0.543,0.003-0.814,0.003
				C180.443,138.256,180.438,138.3,180.431,138.344 M180.406,137.64c2.53,0.014,4.26-1.365,4.817-3.829
				c0.236-1.044,0.277-2.09,0.157-3.153c-0.301-2.669-1.778-4.306-4.271-4.601c-2.758-0.326-4.896,1.064-5.479,3.761
				c-0.237,1.103-0.279,2.205-0.134,3.323C175.867,135.981,177.655,137.626,180.406,137.64"/>
			<path clip-path="url(#SVGID_4_)" fill-rule="evenodd" clip-rule="evenodd" fill="#FFFFFF" d="M134.263,155.301
				c0,2.144,0.003,4.175-0.004,6.206c-0.001,0.294,0.164,0.322,0.387,0.312c1.686-0.072,3.371-0.144,5.057-0.216
				c0.127-0.006,0.254-0.015,0.416-0.023v1.108H132.4v-14.885h7.618v1.179c-1.881-0.093-3.745-0.186-5.688-0.283v5.751
				c1.69-0.063,3.412-0.129,5.156-0.194v1.179C137.753,155.39,136.032,155.346,134.263,155.301"/>
			<path clip-path="url(#SVGID_4_)" fill-rule="evenodd" clip-rule="evenodd" fill="#FFFFFF" d="M123.207,125.66
				c1.701,0,3.42-0.094,5.123,0.026c1.587,0.112,2.412,0.908,2.651,2.185c0.237,1.272-0.377,2.598-1.614,3.282
				c-0.613,0.34-1.302,0.546-2.003,0.831c1.567,1.963,3.161,3.959,4.801,6.011c-0.658,0-1.305,0.013-1.949-0.013
				c-0.103-0.004-0.211-0.173-0.296-0.281c-1.388-1.765-2.778-3.527-4.152-5.302c-0.267-0.345-0.573-0.434-1.06-0.301
				c0.049,1.93,0.099,3.882,0.148,5.868h-1.649V125.66z M124.838,128.809h-0.095c0,0.716,0.012,1.431-0.006,2.146
				c-0.007,0.28,0.1,0.403,0.366,0.394c0.642-0.022,1.288-0.012,1.924-0.089c0.681-0.084,1.278-0.39,1.767-0.892
				c1.261-1.296,0.707-3.56-1.04-3.977c-0.788-0.188-1.645-0.086-2.469-0.127c-0.326-0.016-0.461,0.104-0.453,0.442
				C124.85,127.407,124.838,128.108,124.838,128.809"/>
			<path clip-path="url(#SVGID_4_)" fill-rule="evenodd" clip-rule="evenodd" fill="#FFFFFF" d="M207.974,158.691
				c0.11-0.237,0.175-0.45,0.297-0.624c2.125-3.035,4.257-6.065,6.388-9.097c0.073-0.105,0.154-0.209,0.208-0.325
				c0.162-0.358,0.389-0.505,0.807-0.391c0.262,0.072,0.56,0.014,0.825,0.014v9.271c0.664-0.046,1.325-0.092,1.988-0.139v1.285
				h-1.997v4.02h-1.774c0.056-1.332,0.113-2.665,0.171-4.015H207.974z M214.824,150.224c-1.766,2.377-3.517,4.728-5.104,7.263h5.104
				V150.224z"/>
			<path clip-path="url(#SVGID_4_)" fill-rule="evenodd" clip-rule="evenodd" fill="#FFFFFF" d="M271.631,125.274
				c0.154,0.125,0.313,0.224,0.437,0.355c2.781,2.981,5.559,5.968,8.337,8.953c0.161,0.173,0.316,0.351,0.518,0.573v-9.495h0.988
				c-0.077,4.161-0.155,8.342-0.234,12.616c-0.134-0.091-0.274-0.153-0.37-0.258c-2.854-3.127-5.706-6.259-8.555-9.391
				c-0.087-0.095-0.157-0.203-0.235-0.305c-0.036,0.018-0.072,0.034-0.108,0.052v9.6h-1.048
				C271.449,133.775,271.539,129.578,271.631,125.274"/>
			<path clip-path="url(#SVGID_4_)" fill-rule="evenodd" clip-rule="evenodd" fill="#FFFFFF" d="M228.318,125.264
				c0.164,0.139,0.318,0.243,0.441,0.377c2.396,2.58,4.779,5.172,7.188,7.741c0.535,0.57,1.153,1.062,1.655,1.52v-9.244h0.992
				c-0.079,4.172-0.158,8.361-0.24,12.716c-0.55-0.493-0.909-1.013-1.323-1.475c-0.431-0.479-0.848-0.971-1.275-1.452
				c-0.427-0.481-0.858-0.96-1.293-1.436c-0.444-0.485-0.896-0.966-1.344-1.447c-0.439-0.472-0.879-0.942-1.319-1.412
				c-0.44-0.471-0.881-0.94-1.322-1.409c-0.436-0.464-0.873-0.926-1.387-1.47v9.714h-1.054
				C228.13,133.779,228.223,129.581,228.318,125.264"/>
			<path clip-path="url(#SVGID_4_)" fill-rule="evenodd" clip-rule="evenodd" fill="#FFFFFF" d="M84.084,137.987h-1.123
				c0.094-4.198,0.187-8.405,0.282-12.689c0.137,0.104,0.298,0.191,0.417,0.319c2.386,2.568,4.759,5.149,7.156,7.707
				c0.554,0.589,1.189,1.101,1.707,1.574v-9.24h0.993c-0.082,4.174-0.164,8.362-0.246,12.552c-0.034,0.029-0.069,0.059-0.104,0.088
				c-0.577-0.665-1.15-1.333-1.732-1.994c-0.595-0.677-1.192-1.352-1.799-2.019s-1.224-1.324-1.838-1.984
				c-0.614-0.659-1.229-1.318-1.846-1.976c-0.615-0.656-1.233-1.31-1.932-2.05C83.874,131.569,83.957,134.758,84.084,137.987"/>
			<path clip-path="url(#SVGID_4_)" fill-rule="evenodd" clip-rule="evenodd" fill="#FFFFFF" d="M154.534,149.008v-1.231h11.093
				v1.206c-1.499-0.062-3.018-0.126-4.614-0.192c-0.048,4.671-0.137,9.255,0.129,13.872h-1.044h-0.973
				c0-0.712-0.002-1.394,0.001-2.076c0.015-3.775,0.028-7.551,0.051-11.327c0.002-0.326-0.095-0.458-0.441-0.438
				c-1.298,0.074-2.598,0.127-3.896,0.188C154.74,149.013,154.642,149.008,154.534,149.008"/>
			<path clip-path="url(#SVGID_4_)" fill-rule="evenodd" clip-rule="evenodd" fill="#FFFFFF" d="M78.29,125.633h1.165
				c-0.026,0.458-0.062,0.935-0.081,1.411c-0.081,2.087-0.161,4.175-0.233,6.262c-0.029,0.854-0.189,1.681-0.57,2.445
				c-0.771,1.554-2.102,2.305-3.776,2.441c-0.763,0.063-1.548,0.026-2.308-0.076c-2.104-0.286-3.292-1.496-3.564-3.615
				c-0.095-0.733-0.089-1.482-0.094-2.226c-0.014-2.073-0.008-4.146-0.01-6.22c0-0.141,0-0.281,0-0.425h1.656
				c-0.052,1.184-0.144,2.366-0.146,3.548c-0.003,1.686-0.059,3.385,0.123,5.054c0.271,2.485,1.932,3.304,4.217,3.182
				c2.284-0.124,3.241-1.534,3.502-3.53c0.126-0.974,0.105-1.969,0.114-2.953C78.302,129.172,78.29,127.414,78.29,125.633"/>
			<path clip-path="url(#SVGID_4_)" fill-rule="evenodd" clip-rule="evenodd" fill="#FFFFFF" d="M114.142,138.006v-12.377h6.334
				v0.985c-1.55-0.074-3.11-0.148-4.732-0.227v4.748c1.422-0.044,2.856-0.089,4.314-0.135v0.969h-4.331v5.337
				c1.63-0.063,3.225-0.125,4.845-0.188v0.887H114.142z"/>
			<path clip-path="url(#SVGID_4_)" fill-rule="evenodd" clip-rule="evenodd" fill="#FFFFFF" d="M110.829,125.636h1.235
				c-0.053,0.132-0.102,0.263-0.155,0.391c-1.624,3.873-3.251,7.745-4.863,11.624c-0.12,0.29-0.274,0.307-0.556,0.36
				c-0.747,0.143-0.913-0.302-1.133-0.849c-1.481-3.7-2.99-7.39-4.49-11.083c-0.058-0.144-0.113-0.29-0.188-0.481
				c0.584,0,1.135-0.016,1.683,0.014c0.1,0.006,0.229,0.176,0.276,0.296c1.287,3.315,2.565,6.634,3.846,9.952
				c0.046,0.119,0.103,0.234,0.154,0.351c0.044,0.014,0.088,0.027,0.132,0.04C108.124,132.711,109.478,129.171,110.829,125.636"/>
			<path clip-path="url(#SVGID_4_)" fill-rule="evenodd" clip-rule="evenodd" fill="#FFFFFF" d="M133.818,135.596
				c0.17,0.245,0.273,0.386,0.368,0.53c0.896,1.355,2.644,1.801,3.996,1.097c1.243-0.647,1.999-3.145,0.151-4.205
				c-0.543-0.312-1.131-0.544-1.695-0.818c-0.487-0.237-0.994-0.443-1.451-0.729c-1.167-0.731-1.596-1.826-1.426-3.166
				c0.155-1.226,0.813-2.101,1.958-2.555c1.438-0.571,2.868-0.57,4.258,0.191c0.272,0.149,0.35,0.299,0.208,0.609
				c-0.168,0.369-0.257,0.775-0.497,1.209c-0.094-0.188-0.183-0.376-0.28-0.562c-0.631-1.196-2.138-1.55-3.335-0.783
				c-1.018,0.652-1.306,2.215-0.524,3.177c0.306,0.375,0.743,0.667,1.168,0.915c0.44,0.258,0.938,0.416,1.411,0.617
				c0.132,0.056,0.266,0.106,0.396,0.163c1.736,0.753,2.365,1.671,2.279,3.322c-0.083,1.598-1.114,2.963-2.68,3.416
				c-1.507,0.437-2.996,0.415-4.378-0.465c-0.072-0.046-0.143-0.096-0.212-0.146c-0.034-0.025-0.064-0.055-0.091-0.077
				C133.56,136.797,133.673,136.271,133.818,135.596"/>
			<path clip-path="url(#SVGID_4_)" fill-rule="evenodd" clip-rule="evenodd" fill="#FFFFFF" d="M178.414,147.742v14.9h-1.809
				v-13.201c-0.833,0.445-1.655,0.886-2.415,1.292c-0.258-0.258-0.484-0.484-0.719-0.72
				C175.097,149.267,176.747,148.508,178.414,147.742"/>
			<path clip-path="url(#SVGID_4_)" fill-rule="evenodd" clip-rule="evenodd" fill="#FFFFFF" d="M161.555,138.018
				c0-1.547,0.01-3.075-0.01-4.603c-0.004-0.271-0.075-0.575-0.212-0.808c-1.288-2.195-2.597-4.378-3.899-6.565
				c-0.064-0.108-0.131-0.216-0.244-0.401c0.651,0,1.243-0.016,1.832,0.014c0.105,0.006,0.229,0.184,0.297,0.308
				c1.012,1.825,2.014,3.656,3.021,5.485c0.068,0.124,0.143,0.246,0.249,0.428c0.111-0.165,0.214-0.292,0.291-0.433
				c0.995-1.818,1.993-3.634,2.97-5.462c0.135-0.254,0.25-0.356,0.545-0.311c0.293,0.046,0.599,0.01,0.976,0.01
				c-0.108,0.175-0.194,0.312-0.279,0.449c-1.253,2.032-2.502,4.067-3.76,6.098c-0.218,0.352-0.301,0.717-0.296,1.135
				c0.019,1.543,0.008,3.086,0.008,4.656H161.555z"/>
			<path clip-path="url(#SVGID_4_)" fill-rule="evenodd" clip-rule="evenodd" fill="#FFFFFF" d="M189.679,125.629h6.576v0.962
				c-1.66-0.064-3.309-0.129-5.001-0.195v4.731c1.524-0.052,3.035-0.104,4.571-0.156v0.947h-4.642
				c0.043,2.009,0.087,4.042,0.131,6.098h-1.636V125.629z"/>
			<path clip-path="url(#SVGID_4_)" fill-rule="evenodd" clip-rule="evenodd" fill="#FFFFFF" d="M156.343,125.623v1.012
				c-1.251-0.053-2.497-0.104-3.786-0.159v11.502h-1.604v-11.501c-1.309,0.054-2.567,0.105-3.828,0.157v-1.011H156.343z"/>
			<path clip-path="url(#SVGID_4_)" fill-rule="evenodd" clip-rule="evenodd" fill="#FFFFFF" d="M205.4,137.258
				c1.672-0.062,3.296-0.122,4.933-0.184v0.912h-6.542v-12.354h1.609V137.258z"/>
			
				<rect x="143.355" y="125.632" clip-path="url(#SVGID_4_)" fill-rule="evenodd" clip-rule="evenodd" fill="#FFFFFF" width="1.597" height="12.356"/>
			
				<rect x="97.004" y="125.632" clip-path="url(#SVGID_4_)" fill-rule="evenodd" clip-rule="evenodd" fill="#FFFFFF" width="1.604" height="12.355"/>
		</g>
		<g clip-path="url(#SVGID_2_)">
			<defs>
				<rect id="SVGID_5_" x="28.141" y="15.177" width="294.798" height="294.798"/>
			</defs>
			<clipPath id="SVGID_6_">
				<use xlink:href="#SVGID_5_"  overflow="visible"/>
			</clipPath>
			<path clip-path="url(#SVGID_6_)" fill="#FFFFFF" d="M239.548,247.736c-1.641,0-3.02,0.479-4.138,1.451s-1.736,2.418-1.855,3.892
				h11.769c-0.159-1.474-0.609-2.738-1.35-3.523C242.836,248.338,241.36,247.736,239.548,247.736"/>
			<path clip-path="url(#SVGID_6_)" fill="#FFFFFF" d="M174.022,247.736c-1.64,0-3.02,0.479-4.138,1.451
				c-1.117,0.972-1.735,2.418-1.854,3.892h11.768c-0.159-1.474-0.609-2.738-1.35-3.523
				C177.311,248.338,175.835,247.736,174.022,247.736"/>
			<path clip-path="url(#SVGID_6_)" fill="#FFFFFF" d="M129.85,218.872c1.772,0,3.248-0.597,4.426-1.791
				c1.177-1.194,1.766-3.015,1.766-5.462c0-2.306-0.592-4.054-1.775-5.242c-1.185-1.188-2.656-1.782-4.416-1.782
				c-1.786,0-3.268,0.592-4.445,1.773c-1.178,1.183-1.766,2.969-1.766,5.356c0,2.389,0.588,4.177,1.766,5.365
				S128.063,218.872,129.85,218.872"/>
			<path clip-path="url(#SVGID_6_)" fill="#FFFFFF" d="M190.741,206.228c-1.104-1.183-2.424-1.774-3.958-1.774
				c-1.522,0-2.868,0.63-4.039,1.888c-1.17,1.259-1.756,3.089-1.756,5.488c0,2.4,0.549,4.174,1.646,5.321
				c1.099,1.147,2.428,1.721,3.989,1.721c1.587,0,2.947-0.594,4.077-1.782c1.132-1.188,1.697-3.029,1.697-5.523
				C192.398,209.19,191.847,207.411,190.741,206.228"/>
			<path clip-path="url(#SVGID_6_)" fill="#FFFFFF" d="M59.39,288.75h231.711V169.946H59.39V288.75z M123.222,204.05
				c1.812-1.382,4.021-2.072,6.628-2.072c2.897,0,5.266,0.84,7.104,2.52c1.839,1.681,2.758,4.002,2.758,6.963
				c0,2.4-0.406,4.288-1.22,5.664s-1.998,2.444-3.553,3.205s-3.251,1.142-5.09,1.142c-2.95,0-5.335-0.837-7.153-2.512
				c-1.819-1.675-2.729-4.086-2.729-7.235C119.967,208.271,121.052,205.712,123.222,204.05 M97.315,219.793
				c-1.965-1.13-3.46-2.766-4.485-4.908s-1.538-4.443-1.538-6.901c0-2.681,0.579-5.02,1.736-7.016
				c1.158-1.996,2.806-3.513,4.942-4.549c2.136-1.036,4.487-1.554,7.054-1.554c2.91,0,5.358,0.655,7.343,1.967
				s3.366,3.155,4.147,5.531l-3.79,0.791c-0.675-1.873-1.654-3.237-2.938-4.092s-2.897-1.282-4.842-1.282
				c-2.236,0-4.104,0.474-5.606,1.422c-1.501,0.949-2.557,2.222-3.165,3.82c-0.608,1.598-0.912,3.246-0.912,4.943
				c0,2.189,0.359,4.101,1.081,5.733c0.721,1.633,1.842,2.854,3.363,3.662c1.521,0.808,3.169,1.211,4.941,1.211
				c2.156,0,3.982-0.55,5.478-1.65c1.494-1.101,2.507-2.733,3.035-4.899l3.851,0.86c-0.808,2.798-2.26,4.932-4.356,6.401
				c-2.097,1.469-4.66,2.204-7.689,2.204C101.83,221.489,99.279,220.923,97.315,219.793 M129.85,260.81
				c-0.887,1.212-2.16,2.154-3.82,2.827s-3.528,1.01-5.605,1.01c-2.633,0-4.839-0.34-6.618-1.019s-3.175-1.7-4.188-3.064
				c-1.012-1.364-1.544-2.906-1.597-4.628l3.631-0.28c0.172,1.288,0.572,2.344,1.201,3.17c0.628,0.824,1.604,1.492,2.927,2.002
				c1.322,0.509,2.811,0.764,4.465,0.764c1.469,0,2.765-0.193,3.89-0.58c1.124-0.386,1.961-0.916,2.51-1.589
				s0.824-1.407,0.824-2.204c0-0.808-0.266-1.513-0.794-2.116c-0.529-0.603-1.402-1.108-2.62-1.519
				c-0.78-0.27-2.507-0.688-5.179-1.256c-2.673-0.567-4.544-1.104-5.616-1.607c-1.389-0.644-2.424-1.442-3.105-2.396
				s-1.022-2.022-1.022-3.205c0-1.3,0.417-2.514,1.251-3.644c0.833-1.13,2.05-1.987,3.65-2.573c1.602-0.585,3.381-0.878,5.339-0.878
				c2.156,0,4.058,0.308,5.705,0.922s2.914,1.52,3.8,2.714c0.887,1.193,1.362,2.546,1.429,4.057l-3.69,0.245
				c-0.199-1.627-0.87-2.856-2.015-3.688s-2.834-1.247-5.07-1.247c-2.328,0-4.024,0.378-5.09,1.133s-1.598,1.666-1.598,2.73
				c0,0.926,0.377,1.687,1.132,2.283c0.74,0.598,2.675,1.209,5.805,1.835c3.128,0.627,5.274,1.174,6.438,1.643
				c1.693,0.69,2.943,1.565,3.751,2.625c0.807,1.06,1.211,2.28,1.211,3.661C131.18,258.307,130.736,259.598,129.85,260.81
				 M150.299,262.812c-1.58,1.211-3.522,1.817-5.824,1.817c-2.884,0-5.202-0.834-6.955-2.502c-1.753-1.669-2.63-4.06-2.63-7.175
				c0-2.013,0.378-3.775,1.132-5.285c0.754-1.511,1.901-2.644,3.442-3.398s3.218-1.133,5.03-1.133c2.289,0,4.161,0.513,5.616,1.537
				s2.388,2.479,2.799,4.363l-3.474,0.475c-0.33-1.253-0.916-2.195-1.756-2.827c-0.84-0.633-1.855-0.949-3.046-0.949
				c-1.8,0-3.262,0.571-4.386,1.713c-1.125,1.142-1.687,2.947-1.687,5.418c0,2.505,0.542,4.325,1.627,5.461s2.501,1.703,4.247,1.703
				c1.401,0,2.572-0.38,3.512-1.141c0.939-0.762,1.535-1.932,1.786-3.513l3.513,0.404C152.862,259.923,151.88,261.6,150.299,262.812
				 M159.916,264.281h-3.538v-18.867h3.538V264.281z M159.916,242.171h-3.538v-3.833h3.538V242.171z M159.916,210.214v10.731h-3.538
				v-12.014c0-1.405-0.27-2.459-0.852-3.161s-1.524-1.054-2.847-1.054c-1.006,0-1.93,0.234-2.783,0.702
				c-0.853,0.469-1.438,1.153-1.821,2.055c-0.384,0.902-0.541,2.201-0.541,3.898v9.573h-3.538v-18.572h3.243v2.643
				c0.59-0.913,1.469-1.648,2.566-2.204c1.099-0.556,2.312-0.834,3.715-0.834c1.561,0,2.822,0.287,3.821,0.86
				s1.694,1.376,2.104,2.406c1.667-2.178,3.832-3.267,6.505-3.267c2.09,0,3.763,0.512,4.888,1.536
				c1.124,1.024,1.753,2.603,1.753,4.733v12.698h-3.832v-11.645c0-1.265-0.045-2.175-0.276-2.731
				c-0.231-0.556-0.615-1.004-1.224-1.343c-0.608-0.34-1.305-0.51-2.125-0.51c-1.482,0-2.742,0.437-3.721,1.309
				C160.435,206.898,159.916,208.293,159.916,210.214 M183.548,255.732h-15.717c0.133,2.063,0.787,3.597,1.965,4.686
				s2.646,1.623,4.405,1.623c1.31,0,2.428-0.31,3.354-0.918c0.926-0.609,1.66-1.583,2.203-2.918l3.691,0.402
				c-0.583,1.909-1.661,3.389-3.235,4.442s-3.585,1.58-6.032,1.58c-3.083,0-5.526-0.84-7.332-2.52
				c-1.807-1.681-2.709-4.037-2.709-7.069c0-3.137,0.912-5.572,2.738-7.306c1.826-1.732,4.193-2.599,7.104-2.599
				c2.817,0,5.119,0.85,6.905,2.547s2.679,4.106,2.679,7.186C183.567,255.056,183.562,255.437,183.548,255.732 M183.712,220.803
				c-0.946-0.444-1.687-1.007-2.276-1.686v9.198h-3.537v-25.942h3.242v2.449c0.59-0.948,1.567-1.659,2.533-2.134
				c0.966-0.474,2.104-0.711,3.479-0.711c1.799,0,3.37,0.41,4.746,1.229c1.375,0.819,2.405,1.975,3.107,3.468
				c0.701,1.493,1.047,3.129,1.047,4.908c0,1.909-0.389,3.627-1.162,5.154c-0.774,1.528-1.9,2.699-3.375,3.513
				c-1.476,0.813-2.999,1.221-4.627,1.221C185.699,221.471,184.658,221.249,183.712,220.803 M205.02,264.281h-3.537v-11.417
				c0-1.288-0.137-2.251-0.415-2.889c-0.277-0.639-0.77-1.148-1.477-1.528c-0.708-0.381-1.537-0.571-2.49-0.571
				c-1.521,0-2.857,0.428-3.962,1.282s-1.68,2.477-1.68,4.864v10.259h-3.538v-18.867h3.243v2.796
				c1.474-2.049,3.775-3.073,6.699-3.073c1.271,0,2.434,0.202,3.499,0.605c1.064,0.404,1.859,0.935,2.389,1.59
				c0.529,0.656,0.879,1.435,1.091,2.336c0.132,0.585,0.178,1.609,0.178,3.073V264.281z M203.998,220.838
				c-1.079-0.421-1.879-0.951-2.401-1.589c-0.522-0.639-0.877-1.42-1.089-2.345c-0.146-0.62-0.205-1.604-0.205-2.95v-11.581h3.537
				v10.369c0,1.651,0.077,2.764,0.223,3.337c0.226,0.831,0.704,1.484,1.432,1.958c0.727,0.475,1.628,0.711,2.699,0.711
				s2.077-0.243,3.017-0.729c0.939-0.486,1.642-1.147,2.031-1.984c0.391-0.837,0.622-2.052,0.622-3.644v-10.019h3.538v18.572h-3.243
				v-2.636c-1.769,2.107-3.865,3.161-6.683,3.161C206.231,221.471,205.076,221.26,203.998,220.838 M224.854,262.812
				c-1.581,1.211-3.522,1.817-5.824,1.817c-2.885,0-5.203-0.834-6.955-2.502c-1.754-1.669-2.63-4.06-2.63-7.175
				c0-2.013,0.377-3.775,1.131-5.285c0.755-1.511,1.902-2.644,3.443-3.398s3.218-1.133,5.03-1.133c2.289,0,4.16,0.513,5.616,1.537
				c1.455,1.024,2.388,2.479,2.798,4.363l-3.473,0.475c-0.331-1.253-0.916-2.195-1.756-2.827c-0.841-0.633-1.855-0.949-3.047-0.949
				c-1.799,0-3.261,0.571-4.385,1.713c-1.125,1.142-1.688,2.947-1.688,5.418c0,2.505,0.543,4.325,1.628,5.461
				c1.084,1.136,2.5,1.703,4.246,1.703c1.402,0,2.573-0.38,3.513-1.141c0.939-0.762,1.535-1.932,1.786-3.513l3.513,0.404
				C227.416,259.923,226.435,261.6,224.854,262.812 M225.559,220.75c-0.715-0.362-1.229-0.84-1.52-1.431
				c-0.291-0.592-0.447-1.836-0.447-3.732v-10.855h-2.653v-2.358h2.653v-4.593l3.537-1.896v6.489h3.538v2.358h-3.538v11.031
				c0,0.901,0.081,1.481,0.207,1.738c0.126,0.258,0.34,0.463,0.624,0.615c0.285,0.152,0.696,0.229,1.226,0.229
				c0.396,0,0.921-0.041,1.569-0.123l0.518,2.792c-1.006,0.188-1.904,0.281-2.698,0.281
				C227.277,221.295,226.272,221.114,225.559,220.75 M249.073,255.732h-15.717c0.133,2.063,0.787,3.597,1.965,4.686
				c1.177,1.089,2.646,1.623,4.405,1.623c1.31,0,2.428-0.31,3.354-0.918c0.926-0.609,1.66-1.583,2.203-2.918l3.691,0.402
				c-0.583,1.909-1.661,3.389-3.235,4.442s-3.585,1.58-6.032,1.58c-3.083,0-5.527-0.84-7.333-2.52
				c-1.806-1.681-2.708-4.037-2.708-7.069c0-3.137,0.912-5.572,2.738-7.306c1.825-1.732,4.193-2.599,7.104-2.599
				c2.818,0,5.12,0.85,6.906,2.547s2.679,4.106,2.679,7.186C249.093,255.056,249.086,255.437,249.073,255.732 M252.467,212.397
				H236.75c0.133,2.063,0.787,3.685,1.965,4.773s2.646,1.668,4.405,1.668c1.31,0,2.428-0.288,3.354-0.896
				c0.926-0.609,1.66-1.572,2.203-2.907l3.691,0.408c-0.583,1.908-1.661,3.392-3.235,4.445s-3.585,1.581-6.032,1.581
				c-3.083,0-5.526-0.839-7.333-2.52c-1.806-1.68-2.708-4.035-2.708-7.067c0-3.138,0.912-5.572,2.738-7.306
				c1.825-1.732,4.193-2.599,7.104-2.599c2.817,0,5.119,0.849,6.905,2.546c1.786,1.698,2.679,4.019,2.679,7.098
				C252.486,211.809,252.48,212.102,252.467,212.397 M267.032,205.929c-0.873-0.457-1.746-0.685-2.619-0.685
				c-0.781,0-1.481,0.207-2.104,0.623c-0.622,0.415-1.036,0.992-1.302,1.729c-0.396,1.124-0.566,2.354-0.566,3.688v9.66h-3.537
				v-18.572h3.242v2.854c0.59-1.323,1.518-2.195,2.213-2.617c0.694-0.421,1.429-0.632,2.262-0.632c1.204,0,2.413,0.34,3.656,1.019
				L267.032,205.929z"/>
			<path clip-path="url(#SVGID_6_)" fill="#FFFFFF" d="M242.941,204.577c-1.641,0-3.02,0.539-4.138,1.511s-1.735,2.183-1.854,3.951
				h11.768c-0.159-1.769-0.609-2.798-1.35-3.583C246.229,205.239,244.754,204.577,242.941,204.577"/>
		</g>
	</g>
</g>
</svg>
