<?xml version="1.0" encoding="utf-8"?>
<!-- Generator: Adobe Illustrator 16.0.0, SVG Export Plug-In . SVG Version: 6.00 Build 0)  -->
<!DOCTYPE svg PUBLIC "-//W3C//DTD SVG 1.1//EN" "http://www.w3.org/Graphics/SVG/1.1/DTD/svg11.dtd">
<svg version="1.1" id="Layer_1" xmlns="http://www.w3.org/2000/svg" xmlns:xlink="http://www.w3.org/1999/xlink" x="0px" y="0px"
	 width="280px" height="280px" viewBox="0 0 280 280" enable-background="new 0 0 280 280" xml:space="preserve">
<g>
	<g>
		<defs>
			<rect id="SVGID_1_" x="4.438" y="4.438" width="271.643" height="271.642"/>
		</defs>
		<clipPath id="SVGID_2_">
			<use xlink:href="#SVGID_1_"  overflow="visible"/>
		</clipPath>
		<g clip-path="url(#SVGID_2_)">
			<defs>
				<rect id="SVGID_3_" x="-172.626" y="-128.944" width="567.339" height="567.34"/>
			</defs>
			<clipPath id="SVGID_4_">
				<use xlink:href="#SVGID_3_"  overflow="visible"/>
			</clipPath>
			<g clip-path="url(#SVGID_4_)">
				<defs>
					<rect id="SVGID_5_" x="4.574" y="4.574" width="271.506" height="271.506"/>
				</defs>
				<clipPath id="SVGID_6_">
					<use xlink:href="#SVGID_5_"  overflow="visible"/>
				</clipPath>
				<g clip-path="url(#SVGID_6_)">
					<defs>
						<rect id="SVGID_7_" x="4.574" y="4.574" width="271.506" height="271.506"/>
					</defs>
					<clipPath id="SVGID_8_">
						<use xlink:href="#SVGID_7_"  overflow="visible"/>
					</clipPath>
					<path clip-path="url(#SVGID_8_)" fill="#2E85C5" d="M134.336,4.574h11.165c0.122,0.038,0.242,0.102,0.366,0.109
						c1.63,0.097,3.262,0.165,4.888,0.282c7.658,0.553,15.209,1.791,22.654,3.657c10.174,2.548,19.915,6.235,29.229,11.059
						c13.533,7.01,25.549,16.049,36.05,27.086c9.924,10.43,18.005,22.143,24.196,35.145c7.653,16.073,11.964,33.002,12.949,50.777
						c0.054,0.958,0.163,1.915,0.246,2.872v2.178c-0.046,0.219-0.127,0.437-0.129,0.654c-0.013,1.313-0.013,2.628,0,3.942
						c0.002,0.193,0.083,0.385,0.129,0.579v2.313c-0.046,0.116-0.126,0.229-0.13,0.348c-0.192,5.286-0.634,10.554-1.54,15.762
						c-0.75,4.305-1.733,8.569-2.626,12.848c-0.047,0.22-0.176,0.531-0.347,0.6c-1.592,0.649-3.157,1.445-4.816,1.837
						c-4.188,0.985-8.426,1.768-12.637,2.662c-2.014,0.428-4.057,0.786-6.009,1.415c-5.37,1.728-10.79,3.002-16.485,2.516
						c-2.975-0.256-5.7-1.154-8.066-3.077c-2.623-2.134-4.682-4.699-6.001-7.793c-1.198-2.81-2.189-5.707-3.299-8.555
						c-1.01-2.599-2.553-4.786-4.931-6.333c-3.65-2.379-7.687-3.215-11.952-2.776c-6.457,0.663-10.462,5.048-12.006,10.743
						c-0.766,2.825-0.502,5.692,0.121,8.496c0.972,4.377,2.037,8.735,3.129,13.084c1.079,4.312,1.906,8.642,1.399,13.114
						c-0.362,3.196-1.343,6.147-3.556,8.583c-0.761,0.839-1.644,1.479-2.758,1.782c-2.421,0.657-4.86,0.952-7.375,0.66
						c-2.87-0.33-5.622-1.053-8.15-2.449c-9.169-5.061-13.855-12.988-14.783-23.292c-0.496-5.498,0.351-10.9,1.143-16.309
						c0.173-1.176,0.248-2.403,0.114-3.578c-0.313-2.775-1.813-4.987-3.669-6.982c-2.321-2.496-5.072-4.452-7.921-6.281
						c-3.901-2.508-8.162-3.397-12.74-2.819c-3.692,0.466-7.007,1.933-10.137,3.886c-4.166,2.6-7.516,6.104-10.827,9.662
						c-0.602,0.646-1.204,1.298-1.852,1.897c-1.477,1.371-3.231,2.188-5.253,1.969c-1.629-0.179-3.279-0.493-4.828-1.017
						c-3.722-1.254-7.082-3.259-10.285-5.493c-5.26-3.672-11.077-6.037-17.248-7.627c-5.662-1.458-11.428-2.245-17.246-2.688
						c-1-0.076-0.971,0.054-0.968-0.985c0-0.125-0.033-0.25-0.056-0.403c-0.789,0-1.536-0.011-2.282,0.005
						c-0.38,0.006-0.533-0.149-0.522-0.526c0.016-0.589-0.039-1.184,0.015-1.77c0.077-0.838-0.306-1.441-0.881-1.962
						c-0.768-0.694-1.707-0.898-2.709-0.898c-6.672,0.001-13.344,0-20.015,0.002c-0.239,0-0.478,0.022-0.782,0.037v3.385H12.498
						v13.668h11.833v2.789h0.854h17.904c0.84,0,1.681,0.012,2.52-0.005c1.894-0.036,3.191-1.359,3.196-3.234
						c0-0.403,0-0.805,0-1.278h2.756v-2.02c0.274,0,0.478-0.014,0.677,0.002c5.091,0.406,10.145,1.069,15.109,2.301
						c4.995,1.24,9.8,2.961,14.169,5.75c2.024,1.293,4.009,2.655,6.077,3.874c3.529,2.076,7.213,3.811,11.274,4.601
						c5.049,0.981,9.565-0.059,13.341-3.655c1.689-1.606,3.283-3.316,4.877-5.021c2.895-3.099,6.122-5.738,10.065-7.392
						c4.51-1.889,8.84-1.672,12.897,1.232c1.346,0.963,2.745,1.871,3.976,2.968c1.156,1.033,2.164,2.245,3.153,3.446
						c0.611,0.742,0.741,1.674,0.606,2.645c-0.42,3.023-0.877,6.045-1.214,9.08c-0.418,3.776-0.357,7.559,0.134,11.334
						c1.097,8.415,4.498,15.683,10.784,21.478c7.153,6.596,15.485,9.666,25.261,8.19c3.133-0.477,5.98-1.577,8.241-3.953
						c2.403-2.526,3.996-5.477,4.902-8.815c1.436-5.294,1.186-10.616,0.025-15.899c-0.977-4.444-2.174-8.843-3.23-13.272
						c-0.589-2.468-1.179-4.944-1.029-7.517c0.187-3.213,2.656-6.11,5.808-6.652c1.823-0.312,3.647-0.168,5.439,0.399
						c2.391,0.76,4.169,2.13,4.988,4.592c0.465,1.396,1.008,2.767,1.49,4.157c1.731,4.984,4.135,9.546,8.016,13.246
						c3.927,3.745,8.571,5.73,13.962,6.102c4.76,0.328,9.414-0.296,14.003-1.479c2.06-0.532,4.059-1.313,6.129-1.779
						c4.686-1.055,9.4-1.983,14.104-2.961c1.161-0.241,2.324-0.477,3.561-0.729c-0.103,0.317-0.168,0.532-0.238,0.745
						c-2.305,6.842-5.138,13.458-8.531,19.83c-10.688,20.065-25.434,36.501-44.262,49.242
						c-14.841,10.042-31.071,16.827-48.628,20.415c-7.347,1.499-14.769,2.389-22.266,2.619c-2.099,0.005-4.197,0.011-6.296,0.014
						c-1.174,0-2.347-0.006-3.52-0.01c-7.564-0.232-15.052-1.134-22.461-2.651c-12.009-2.462-23.477-6.477-34.391-12.066
						c-14.065-7.202-26.498-16.578-37.308-28.095c-9.521-10.146-17.311-21.484-23.337-34.026
						c-7.647-15.918-12.007-32.697-13.098-50.323c-0.065-1.053-0.166-2.103-0.249-3.152V134.2c0.045-0.138,0.12-0.274,0.132-0.416
						c0.284-3.361,0.463-6.734,0.861-10.082c1.11-9.347,3.194-18.48,6.268-27.378c7.382-21.369,19.323-39.8,35.83-55.239
						c14.66-13.71,31.558-23.679,50.646-29.907c10.936-3.568,22.152-5.685,33.639-6.36C132.748,4.771,133.54,4.657,134.336,4.574
						 M60.764,75.123v17.076h-7.326V75.122h-6.059v40.362h6.098v-17.04h7.342v17.031h6.056V75.123H60.764z M143.973,115.523
						c-0.401-0.999-0.759-1.895-1.121-2.786c-2.819-6.897-5.644-13.792-8.451-20.695c-0.097-0.24-0.134-0.597-0.025-0.812
						c2.008-4.012,4.042-8.009,6.068-12.011c0.682-1.346,1.358-2.696,2.082-4.136c-2.056,0-4,0.016-5.946-0.012
						c-0.456-0.007-0.676,0.147-0.88,0.544c-2.064,4.032-4.15,8.055-6.232,12.08c-0.24,0.461-0.49,0.917-0.737,1.375l-0.149-0.05
						V75.133h-6.073v40.333h6.087v-0.8c0-3.79-0.001-7.578,0-11.368c0-0.225-0.04-0.483,0.05-0.671
						c0.536-1.113,1.104-2.211,1.727-3.44c0.152,0.351,0.255,0.565,0.341,0.786c1.935,4.958,3.88,9.913,5.785,14.882
						c0.213,0.555,0.491,0.692,1.037,0.681c1.587-0.032,3.177-0.011,4.766-0.011H143.973z M78.809,75.122
						c-2.288,13.464-4.572,26.896-6.86,40.364h6.358c0.029-0.138,0.057-0.245,0.075-0.353c0.448-2.774,0.908-5.547,1.327-8.325
						c0.071-0.461,0.226-0.602,0.677-0.595c1.656,0.021,3.314,0.041,4.969-0.008c0.649-0.021,0.835,0.216,0.919,0.817
						c0.379,2.671,0.817,5.332,1.202,8.001c0.062,0.422,0.234,0.51,0.614,0.507c1.815-0.015,3.63-0.006,5.445-0.01
						c0.128,0,0.254-0.04,0.459-0.076c-2.258-13.473-4.51-26.908-6.757-40.323H78.809z M111.218,100.731
						c-0.026,0.117-0.043,0.16-0.043,0.204c-0.005,1.656-0.002,3.312-0.013,4.969c-0.002,0.36-0.04,0.724-0.091,1.081
						c-0.281,1.964-2.786,3.366-4.551,2.619c-1.522-0.645-2.34-1.814-2.34-3.686c-0.004-7.102-0.001-14.204,0-21.306
						c0-0.227,0.012-0.454,0.032-0.679c0.174-1.839,1.553-3.178,3.333-3.241c1.745-0.062,3.355,1.219,3.537,3.011
						c0.148,1.461,0.065,2.944,0.083,4.417c0.003,0.263,0.001,0.526,0.001,0.804h6.31c0-1.63-0.035-3.216,0.007-4.799
						c0.122-4.771-4.235-10.456-11.26-9.348c-4.777,0.754-8.074,4.755-8.08,9.587c-0.009,7.306-0.007,14.613,0.005,21.919
						c0.001,0.654,0.072,1.314,0.18,1.96c0.774,4.654,5.664,8.629,11.078,7.692c3.825-0.663,7.271-3.653,7.827-7.436
						c0.371-2.511,0.166-5.108,0.213-7.667c0.001-0.032-0.054-0.066-0.087-0.103H111.218z M171.645,88.948
						c0-1.619-0.021-3.179,0.003-4.739c0.082-5.057-4.407-10.534-11.319-9.428c-4.736,0.758-8.019,4.769-8.02,9.563
						c-0.002,7.305,0.075,14.611-0.022,21.915c-0.079,5.875,5.347,10.673,11.241,9.685c3.764-0.631,7.019-3.552,7.858-7.275
						c0.158-0.702,0.233-1.434,0.247-2.153c0.032-1.919,0.012-3.84,0.012-5.785h-6.334c0,0.293,0.003,0.56,0,0.827
						c-0.018,1.745,0.06,3.5-0.078,5.235c-0.168,2.145-2.451,3.325-4,2.983c-1.911-0.421-2.907-1.822-2.909-3.808
						c-0.001-4.651,0-9.301,0-13.952c0-2.54-0.008-5.081,0.002-7.622c0.007-2.076,1.451-3.645,3.385-3.702
						c1.926-0.057,3.482,1.436,3.587,3.494c0.051,0.996,0.013,1.997,0.014,2.994c0.001,0.583,0,1.165,0,1.768H171.645z
						 M225.088,115.488v-0.829c0-5.083-0.006-10.165,0.012-15.247c0.002-0.51,0.085-1.044,0.25-1.525
						c2.222-6.42,4.468-12.833,6.704-19.248c0.4-1.149,0.79-2.302,1.209-3.518c-0.288-0.016-0.485-0.037-0.682-0.037
						c-1.815-0.003-3.632,0.019-5.446-0.015c-0.508-0.01-0.697,0.171-0.837,0.638c-0.954,3.164-1.939,6.321-2.913,9.479
						c-0.423,1.364-0.847,2.725-1.32,4.25c-0.104-0.278-0.148-0.377-0.181-0.479c-1.269-4.064-2.538-8.128-3.798-12.195
						c-0.521-1.677-0.512-1.68-2.298-1.68h-4.95c0.092,0.29,0.15,0.504,0.224,0.713c2.449,7.061,4.891,14.124,7.361,21.177
						c0.366,1.042,0.557,2.071,0.55,3.181c-0.032,4.833-0.016,9.667-0.016,14.499v0.835H225.088z M206.626,75.14h-18.992v6.095
						h6.481v34.234h6.113V81.227h6.397V75.14z M182.697,75.14h-6.041v40.348h6.041V75.14z"/>
					<path clip-path="url(#SVGID_8_)" fill-rule="evenodd" clip-rule="evenodd" fill="#77B0D9" d="M135.425,276.081
						c0.024-0.047,0.021-0.089-0.008-0.13c1.173,0.003,2.345,0.01,3.52,0.01c2.099-0.003,4.197-0.009,6.296-0.012
						c-0.001,0.043-0.002,0.087-0.004,0.132H135.425z"/>
					<path clip-path="url(#SVGID_8_)" fill-rule="evenodd" clip-rule="evenodd" fill="#63A4D3" d="M276.079,142.915
						c-0.045-0.194-0.126-0.386-0.129-0.579c-0.012-1.313-0.012-2.628,0-3.942c0.003-0.219,0.084-0.436,0.129-0.654V142.915z"/>
					
						<rect x="15.903" y="154.881" clip-path="url(#SVGID_8_)" fill-rule="evenodd" clip-rule="evenodd" fill="#3086C6" width="3.355" height="2.801"/>
					
						<rect x="15.886" y="149.215" clip-path="url(#SVGID_8_)" fill-rule="evenodd" clip-rule="evenodd" fill="#2E84C5" width="3.359" height="2.773"/>
					<path clip-path="url(#SVGID_8_)" fill-rule="evenodd" clip-rule="evenodd" fill="#3086C6" d="M85.225,100.245h-4.461
						c0.72-5.095,1.433-10.145,2.146-15.196c0.051-0.006,0.104-0.011,0.154-0.018C83.78,90.08,84.498,95.127,85.225,100.245"/>
				</g>
			</g>
		</g>
	</g>
</g>
</svg>
